<svg id="Vrstva_1" xmlns="http://www.w3.org/2000/svg" version="1.1" viewBox="0 0 747 559.9"><defs><style>.st0{fill:#ee4c25}.st1{fill:#fff}</style></defs><path class="st0" d="M569.8 0c2.6.5 14.1 6.4 16.1 8.3 1.5 1.4 8.3 13 8.3 14.1v223.3H475.8l-1.3-1.5c1.1-4.7 1.1-10.3.8-15.1-1.3-23.2-7.7-45.5-9.9-68-2.4-24.5 9.1-53.2-2.4-74.6-8.4-15.5-28.2-18.6-41.5-28.3 4-6.9-1.2-12.4 0-18.7.9-4.2 7.5-10.6 7.7-14.3l-3-25.4h143.4zM594.3 291.8v129.4c0 2.2-5.6 11.5-7.5 13.5-1.7 1.7-9.2 7-11 7H381.4c.6-7.8-.8-16.8 0-24.5.6-5.4 3.7-11.1 4-16.9.5-7.1-3.2-16.3-2-22 .6-2.8 7.2-11 8.8-15.1 1.9-5 3.3-7.3 1-12.8-1.2-2.9-4.4-4.6-4.9-7.1-2.2-11.7 4.4-28.2.3-38.2-.5-1.2-2.1-1.1-2.3-1.9-.7-3.1.5-7.9 0-11.3h207.8z"/><path class="st1" d="M300.5 0l7.8 140.2c-.6 4.3-8.3 5.1-12 7-3.1 1.6-12.8 6.3-13.6 9.4-.9 3.3 1.9 4.2 2.3 6.1s-1.5 6.3-.3 8c.5.8 3.4-.2 4.4 3.1.8 2.5 2.6 16.3 2.3 18.4-.3 1.7-4.2 7-5.3 9.7-1.7 4.3-1.8 8.4-3 12-2.7 7.8-7.7 14.6-7 24-2.5.9-11.5 9-13 9H155.2l-1.5-1.5V21.5c0-4.5 6.8-13.8 10.7-16.3 1.1-.7 9.3-5.2 9.8-5.2h126.4zM255.6 290.8v76.9c0 .2-2.6.5-4 1.5-5.9 4.6 5.5 14.3 5 19.9-.2 1.6-8.4 19.6-9.6 21.3-1.4 1.8-10.6 8.5-12.8 9.3-5.6 2-19.9-.7-20.5 8.5-.2 3.4 4.9 10.7-1 13.9-1.7.9-35.4 1-39.5.5-7.9-1-15-9.1-18.2-15.8-3-42.9-.5-86.5-1.3-129.6 0-1.9-.7-3.6-1-5.4 1 .2 2.1-1 2.5-1h100.4zM353.5 0c.4.4-2 9.9-2.5 11-1.2 2.5-5.8 4.8-7.2 8.8-2.5 7.4-2.4 33.6.2 41.2 1.3 3.7 8 11.9 7.3 14.3-.4 1.4-14.7 15-17.3 18.8-12.1 17.8-.4 32.3-3.6 50.4-.7 4.2-11 .9-12-2L311.5 0h42zM315.5 290.8c1.7 1.1.8 18.9 1 22.5 1.1 17 2.9 34 4 51 .4 5.7 1.4 14.5.9 19.9-.9 10.2-12.3 28-18.9 36.1-.7.8-5 5.6-6 4.5 1.5-7.3 2.6-14 2-21.5-.4-4.9-2.6-10.2-2.9-15.1-.4-8 3.4-19.5 4.8-28 1.7-10.8 1.9-11.6 5.2-21.8 4.8-15.2 3.9-31.7 6.9-47.1l3-.4zM330.5 407.7l-4-116.9 4.9 1.6c2.3 22 4.6 43.9 7.1 65.8.8 6.9 0 14.7 2.3 21.7 1.7 5.6 9.2 13.1 3.6 19.2-1.3 1.4-12.7 9.8-13.9 8.6zM328.5 423.7v19H314l-1-2c4.7-4.2 8.3-11 12.7-15.3.9-.9.8-2.2 2.8-1.7z"/><g><path class="st1" d="M102 506l-18 38.6 1.7 3.3c3.8-.3 11.8 1.7 14.2-1.5L119 506h15l-19.6 40 1 2.9c5.6-2.8 11.4 2.7 15.6-3.3l20.5-39.5H167c.2 1.1-.1 2-.5 3-2 6.5-18.4 38.4-22.5 43.5-3.5 4.3-6.8 6-12.5 6.5-13 1.2-37 1-50.1 0-6.1-.5-17.3-2.5-16.4-10.5L85.5 506H102zM625.5 548c1.9 0 4.8-.6 4.5 1.5s-3.7 8.7-5.7 9.3c-16.1-.7-34 1.6-49.8.2-8-.7-15.2-2.4-12.5-11.6 1.6-5.4 13.9-30.1 17.2-34.8s7.8-6.2 13.3-6.7c12.3-1 36.9-1.2 49.1 0 4.5.4 6 1.5 5.4 6.5-.3 2.3-6 15.1-7.4 17.7-2.8 4.9-6.4 7.3-12 8-13.4 1.5-29.2-1.3-42.8.2-3.2 1-6.4 9.8-3.2 9.8 14.4 0 29.7-.7 44 0zm2-32h-29c-4.2 0-6.9 6.9-9.5 9.5 1 1.5 1.9 1.4 3.4 1.5 5.5.6 27.3.5 31.8-1.1l4.4-7.9-1.1-2.1z"/><path class="st0" d="M501 485c.2 1.1-.1 2-.5 3-3.8 12.1-24.1 49.8-31.4 61.6-3.7 6-5.2 7.6-12.7 8.3-8.5.8-41.4 1-48-1.9-4-1.8-5.9-4.8-5-9 .7-3 12.2-26.2 14.3-29.7 4.9-8 10.4-10.4 19.7-11.3 12.4-1.1 26.2.8 38.8 0 1.1-.3 8.4-17.7 11-19.8 3-2.5 10-.9 13.7-1.3zm-63.3 31.2c-4.1 2-17.2 28.2-16.6 30.1.3.9 1.3 1.5 2.2 1.9 2.8 1.3 19.3 1.2 23.3.8 5.1-.5 7.3-1.5 10.3-5.7 1.9-2.7 9.8-18.3 10.7-21.3.6-1.9 1.2-5.1-1.2-5.9h-28.6z"/><path class="st1" d="M185.7 506.2c8.3-1.4 32.9-1.1 41.8-.2 5.1.5 13.4 2.9 14.1 8.9.2 1.8-13.1 29.5-15.1 33-4.6 7.7-11.1 10.4-19.9 11.2-8.2.7-38.9.9-45.1-2-2.4-1.1-4.2-2.9-4.4-5.6-.2-3.3 14-31.6 16.8-36.1 3.1-5 5.7-8 11.9-9.1zm-8.2 41.8c4 1.2 23.1 0 29 0s2.1-1.1 2.6-1.7c1.4-5.3 15.4-25.1 12.8-29.2-6.7-1.3-26.9-2.9-31.8 1.4-1.1 1-14.1 25.5-14 27 0 1 .8 2.2 1.5 2.5z"/><path class="st0" d="M266 516l4.5-9.1c1.8-1.5 40.7-1.4 46-.9 5.8.5 17.9 3 16.1 11-10.3 16.6-10.5 39.4-34 41.1-9.4.7-32.1 1.2-40.8-.3-1.9-.3-6.4-2-7.2-3.8-2-4.2 7-23.4 10.6-25.5 7.9-4.6 39.7.2 50.3-1.5 1.5-2.3 5-7.4 3.5-9.9-.8-.1-2-1.2-2.4-1.2h-46.5zm40 21h-33.5l-5.6 9.4c0 .4 3.2 2.2 3.8 2.3 3.7.8 24 .8 27.3-.2 3.6-1.1 8.1-7.6 8-11.5z"/><path class="st1" d="M685 559c-2-1.9 18.9-35.3 18.1-41.3-.7-2.8-27-1.6-31.1-1.2L650 559h-16l26.5-53.1c15.4 1.2 32.8-1.4 48 0 6.6.7 15.5 3.9 13.1 12l-20 41h-16.5z"/><path class="st0" d="M390 558h-16l17.9-37.7c.3-3.8-2.3-4-5.3-4.3-3.2-.3-26.3-.2-27.6.5L338 558h-16l24.2-48.3 2.8-3.2c13.9-.1 29.7-1.6 43.5-.5 6.8.5 17.9 2 17.1 11L390 558z"/><path class="st1" d="M48 484l-9 22h37l-4.6 9.9-38.2.3-14.8 29.3.8 2.3c6.4 2.3 13.3.9 19.8.7 2.4 1.3-4.2 9.7-5 10-4.4 2.2-35.2 2.3-34-9.1L32 484h16zM544 484c2.1 2.1-8.8 18.3-9 22h38l-4.7 10-38.3.5-14.8 28.2c-1 1.7 2.3 4.3 3.4 4.3h18.5c-2.2 3.7-4.6 9.4-9.5 10s-15.9.3-20.6-.5c-7.6-1.3-11.6-5.3-9.2-13.3 2.6-8.7 23.6-49.9 29-58 .8-1.2 1.5-2.4 2.7-3.3H544zM740 506c2.5.3 1.6 0 2.1-1.4 1.3-3.2 0-4.2 4.9-3.6l-1 12-2.5-4-2 4-3-5-2.5 5v-12c3.8-.6 4.2 1.8 4 5zM734 501l-3.1 2.5.1 8.5h-3v-8.5l-3-2.5h9z"/></g></svg>