<svg xmlns="http://www.w3.org/2000/svg" xmlns:xlink="http://www.w3.org/1999/xlink" xmlns:svgjs="http://svgjs.dev/svgjs" width="284" height="103"><svg width="284" height="103" viewBox="0 0 284 103" fill="none" xmlns="http://www.w3.org/2000/svg"><g clip-path="url(#clip0_2_114)"><path d="M124.25 51.45l-11.68 37.7H98.09l11.68-37.7h14.48zM157 61.76a29.24 29.24 0 00-10.6-1.89c-2.27 0-6.23.06-7 2.49-1.52 4.91 19.74.27 15.24 14.8-3.13 10.1-13.91 12.64-22.28 12.64a58.997 58.997 0 01-15-1.78l3-9.78a29.438 29.438 0 0012.2 2.48c3.4 0 6.7-.7 7.28-2.59 1.57-5.08-19.67-.48-15.14-15.12 3.3-10.37 14.65-12.21 23.24-12.21A58.36 58.36 0 01160 52.09l-3 9.67zM165.24 51.45H189c6.54 0 12.31 2.1 10.09 9.29-1.61 5.18-5.22 7.94-10.64 9.23v.11c5 .71 7 4.81 5.83 8.59-2.95 9.51-10.92 10.48-18.75 10.48h-21.97l11.68-37.7zm4.35 29.92h3.78c2.65 0 5.81-1 6.72-3.89 1-3.24-1.52-3.83-4.22-3.83H172l-2.41 7.72zm4.8-15.5H178c2.54 0 5.53-.76 6.42-3.62.89-2.86-1.24-3.67-3.83-3.67h-3.95l-2.25 7.29zM230.69 51.45h14.48l-11.68 37.7H219l4.2-13.56h-9.67l-4.2 13.56h-14.47l11.68-37.7H221l-4 13h9.67l4.02-13zM251.16 51.45h32.3l-2.81 9.07h-17.82l-1.89 6.1h17.28l-2.81 9.08h-17.29L254 89.15h-14.52l11.68-37.7zM53.05 0a51.14 51.14 0 00-35.44 12.62C27.7 34.08 40.59 58.27 44 63.79c8.27 13.58 19.78 11.74 54.81 7a51.317 51.317 0 00-4.366-47.363A51.31 51.31 0 0053.05 0z" fill="#007BC0"/><path d="M130.34 40.65a10.457 10.457 0 01-8.958 7.419 10.462 10.462 0 01-11.479-11.404 10.465 10.465 0 017.36-9.006 10.458 10.458 0 016.077-.009 10.471 10.471 0 017 13z" fill="#E6732F"/><path d="M76.84 89.15c-19.64.49-27.37-1.37-33-8.34-4.65-5.74-20-34.81-32.43-61.72a51.28 51.28 0 0074.5 70.06h-9.07z" fill="#007BC0"/></g><defs><clipPath id="SvgjsClipPath1149"><path fill="#fff" d="M0 0h283.46v102.59H0z"/></clipPath></defs></svg><style>@media (prefers-color-scheme:light){:root{filter:none}}@media (prefers-color-scheme:dark){:root{filter:none}}</style></svg>