<?xml version="1.0" encoding="UTF-8"?>
<svg id="Layer_1" xmlns="http://www.w3.org/2000/svg" version="1.1" xmlns:xlink="http://www.w3.org/1999/xlink" viewBox="0 0 611.6 676.9">
  <!-- Generator: Adobe Illustrator 29.8.2, SVG Export Plug-In . SVG Version: 2.1.1 Build 3)  -->
  <defs>
    <style>
      .st0 {
        fill: #a00000;
      }

      .st1, .st2 {
        fill: #fff;
      }

      .st2 {
        fill-rule: evenodd;
      }

      .st3 {
        fill: none;
      }

      .st4 {
        fill: #f7602b;
      }

      .st5 {
        fill: #660b13;
      }

      .st6 {
        fill: #ccc;
      }

      .st7 {
        clip-path: url(#clippath);
      }
    </style>
    <clipPath id="clippath">
      <rect class="st3" x="250.9" y="213.5" width="109.8" height="41"/>
    </clipPath>
  </defs>
  <g>
    <path class="st5" d="M561,248v-46.6l3.7-11.1-14.4-19.7-4.9-35.7,4.1-8.6-6.6-8.2-12.3-65.7-12.3,65.7-6.6,8.2,4.1,8.6-4.9,35.7-1.1,1.5-13.7-13.7-8.9,8.9-19.5-19.5-4.6,4.6-24-24-14.8,14.8-.6-.6c4.7-12.2,9.3-24.4,13.5-36.4.5-1.5,2.2-5.3,1.7-6.4-.6-1.2-10-9.4-11.7-10.8-29.4-24.1-70-33.9-106.5-41.5-12.2,7.8-24.7,16.2-37.6,25.2l13.1-63.8-1.1-.2c-45,7.2-90.4,14.3-133.7,28.7-32.1,10.6-63.9,24.6-88.9,47.8l-.4.9c7.1,24.1,13.7,48.5,21.3,72.5,4.6,14.4,5.8,20.9,14.2,28.6L9.5,291.7l13.8,45.8v56.3l76,47.5v48.6l15.9,10v48l190.6,119s27.7-17.3,42.3-26.4c5,2.3,10.5,3.6,16.3,3.6,21.1,0,38.2-16.9,38.5-37.9,46.7-29.2,93.4-58.4,93.4-58.4v-48l15.9-10v-48.6l76-47.5v-56.3l13.8-45.8-41-43.8Z"/>
    <path class="st6" d="M305.8,676.9l-199.1-124.3v-48l-15.9-10v-48.6l-76-47.5v-59.8L0,289.5l96-102.4c-4.6-6.2-6.6-12.6-9.2-21.2-.5-1.5-1-3.1-1.5-4.8-5.1-16.1-9.9-32.6-14.4-48.6-2.3-7.9-4.6-16.1-6.9-24.1l-.9-3,2.4-5.4,1.3-1.2c28.4-26.4,64.1-40.4,92-49.6C201.4,15.1,246.3,7.9,289.7.9l5.7-.9,10.9,2.4-10.5,51.3c5.5-3.7,10-6.6,20.4-13.3l2.9-1.9,3.4.7c37.1,7.6,79.2,17.9,110.2,43.2,3.7,3,12.5,10.5,14.1,13.8,2,4.2.3,8.6-1.1,12.1-.1.3-.2.6-.3.8-1.1,3.2-2.3,6.5-3.6,9.9l21.4,21.4,4.6-4.6,19.5,19.5,8.9-8.9,8.4,8.4,2.6-18.5-5.3-11.1,8.6-10.7,20.3-108.2,20.3,108.2,8.6,10.7-5.3,11.1,4.3,31.1,15.7,21.5-4.6,13.9v41.9l42.1,44.9-14.8,49.3v59.8l-76,47.5v48.6l-15.9,10v48l-93.8,58.6c-2.8,23.3-22.8,41.5-46.7,41.5s-10.5-.9-15.5-2.6l-43.1,26.9h0ZM123.7,543.1l182.1,113.7,41.7-26,4.2,2c4,1.9,8.3,2.8,12.7,2.8,16.3,0,29.8-13.2,30-29.5v-4.6c0,0,93.4-58.3,93.4-58.3v-48l15.9-10v-48.6l76-47.5v-52.8l12.7-42.3-40-42.7v-51.4l2.7-8.2-13-17.9-5.6-40.4,2.9-6.1-4.6-5.7-4.4-23.2-4.4,23.2-4.6,5.7,2.9,6.1-5.6,40.4-8.2,11.2-14.8-14.8-8.9,8.9-19.5-19.5-4.6,4.6-24-24-14.8,14.8-10.5-10.5,2-5.2c5-12.8,9.5-25,13.5-36.2,0-.3.2-.6.4-1-2.6-2.4-6.5-5.8-7.8-6.8-27.1-22.1-65.2-31.9-99.5-39-15.2,9.8-16.3,10.5-34.4,23.2l-17.5,12.2,15-73.1c-40.6,6.5-82.3,13.6-121.5,26.6-36.9,12.2-62.6,25.6-82.5,42.9,1.9,6.5,3.8,13.1,5.6,19.5,4.5,15.9,9.2,32.2,14.3,48.1.6,1.7,1.1,3.4,1.5,4.9,3.4,10.8,4.6,14.9,10.3,20.1l6.3,5.8-100.5,107.2,12.7,42.3v52.8l76,47.5v48.6l15.9,10v48h0ZM430.6,99.6h0,0Z"/>
  </g>
  <g>
    <polygon class="st5" points="493.2 175.5 529.2 214 545.2 231.1 555.1 241.6 602.1 291.7 588.3 337.5 588.3 393.8 512.3 441.3 512.3 489.9 496.4 499.8 496.4 547.8 305.8 666.9 115.2 547.8 115.2 499.8 99.3 489.9 99.3 441.3 23.3 393.8 23.3 337.5 9.5 291.7 118.4 175.5 493.2 175.5"/>
    <g>
      <path class="st5" d="M531.4,193.6l-35.3-35.3-8.9,8.9-19.5-19.5-4.6,4.6-24-24-14.8,14.8-9-9-57,57,57,57,14.8-14.8,9,9,4.6-4.6,24,24,8.9-8.9,19.5,19.5,35.3-35.3c12-12,12-31.5,0-43.5h0Z"/>
      <path class="st0" d="M529.7,216.2l-35.3-35.3-8.9,8.9-19.5-19.5-4.6,4.6-24-24-14.8,14.8-9-9-45.9,45.9,36.7,5.7,23.5,51,19.9,5.2,19.3,5.4,12.4-.5,8.2-2.5,15.1,2.9,26.9-10.2c12-12,12-31.5,0-43.5Z"/>
    </g>
    <g>
      <path class="st5" d="M124.8,199.9c.3-1-.2-.7-.6-1-2.2-1.7-5.8-3.4-8.3-5.2-16.3-11.3-16.7-17-22.5-35.2-7.7-24-14.2-48.4-21.3-72.5l.4-.9c25-23.2,56.9-37.1,88.9-47.8,43.4-14.4,88.7-21.4,133.7-28.7l1.1.2-13.1,63.8c12.9-9,25.4-17.4,37.6-25.2,36.6,7.5,77.1,17.4,106.5,41.5,1.7,1.4,11.2,9.6,11.7,10.8.5,1.1-1.2,5-1.7,6.4-7.1,20-15.1,40.7-23,60.5-1.6,3.9-3.1,8.5-5.1,12.1-5,9.1-15.8,15-23.2,21.9-.6.5-1.5,1.1-1.3,2l25.9,2.3,37.2,94.3M114.9,176.9c9.2,8.4,19.3,13.1,30.5,18.5,12.3-1,25.6-5.5,37.8-6.3,5.8-.4,14.3.5,20.3.9,5.1.3,10.2,1.3,15.3,1.4l43.6-59.8c.2-.6,0-1.4,0-2,7-35.4,12.1-71.2,19.4-106.5-28.4,2.2-56.7,8-84.4,14.7-26.6,6.4-53.5,15-77.6,28-12.6,6.7-24.8,14.6-34.7,24.9v1.1c7.3,21.8,12.3,44.7,19.8,66.4,1.8,5.4,4.8,14.5,8.8,18.3.4.3,1,.3,1.1.4h0ZM283.1,196.6v56.6h8.6v-55.3c-.3-.7.3-1.1.5-1.5,2.1.5,4.9.8,7,.9,19.2,1.2,38.5,2.1,57.7,3.1,16.1-6.5,32-14.4,43.4-27.8l24-66.2c.1-1.5-1.2-3-2.1-4.2-15-21.4-65-36.1-90-41.3-3.2-.7-11.3-1.6-11.3-1.6,0,0,13.9,92.9,9.4,94.7M309.3,81.3l105.6,171.9c-.9-4.9-2.9-9.8-4.6-14.5-2.4-6.6-5.3-14.8-8.2-21.1-.3-.7-.7-1.9-1.4-2.2-29.5-2.7-59.1-4.5-88.6-6.4v3.4s5.4,40.8,5.4,40.8h97.4l-105.6-171.9Z"/>
      <path class="st1" d="M114.9,176.9c-.1-.1-.8,0-1.1-.4-4-3.8-7-12.9-8.8-18.3-7.5-21.7-12.4-44.6-19.8-66.4v-1.1c9.8-10.4,22.1-18.2,34.6-24.9,24.1-12.9,51-21.6,77.6-28,27.6-6.6,56-12.4,84.4-14.7-7.3,35.3-12.4,71.1-19.4,106.5-12,.1-24,.6-35.8,2.3-22.7,3.3-47.2,9.6-68.4,18.2-15.7,6.4-31.6,14.4-43.3,26.8Z"/>
      <path class="st0" d="M292.1,196.3c.8-2.2,8.2-9.8,10.4-12.4,10.3-12.6,20.5-25.3,30.2-38.3-2.7-23.9-5.9-47.8-9.5-71.6-.8-4.9-2-9.7-2.2-14.7,3.8.5,8,.9,11.3,1.6,24.9,5.2,75,19.9,90,41.3.8,1.2,2.2,2.7,2.1,4.2l-24,66.2c-11.4,13.5-27.3,21.3-43.4,27.8-19.2-1-38.5-2-57.7-3.1-2.1-.1-4.9-.4-7-.9h0Z"/>
      <path class="st0" d="M262.4,129.6c-.1.6.2,1.4,0,2l-43.6,59.8c-5.1,0-10.2-1-15.3-1.4-6-.4-14.5-1.3-20.3-.9-12.2.8-25.5,5.4-37.8,6.3-11.2-5.3-21.3-10.1-30.5-18.5,11.7-12.4,27.6-20.5,43.3-26.8,21.2-8.6,45.7-14.9,68.4-18.2,11.8-1.7,23.8-2.2,35.8-2.3h0Z"/>
      <path class="st1" d="M69.9,264.5l46.3-50.7c6.1-.8,25-5.4,44.1-9.2,6.7-1.3,6.4-1.3,20.6-4.3-4.4,17.2-1.2,3.2-6.3,24.9l-104.8,39.3h0Z"/>
      <path class="st1" d="M321,59.2c1.4,10.5,1.4,9.8,2.2,14.7,3.7,23.8,6.8,47.7,9.5,71.6-9.7,13-19.9,25.8-30.2,38.3-2.1,2.6-9.6,10.2-10.4,12.4-.1.4-.7.8-.5,1.5v2.5s-8.5-1.2-8.5-1.2v-7l38.8-46.5-10.8-79.3"/>
    </g>
    <rect class="st0" x="115" y="399.7" width="381.5" height="68.6"/>
    <polygon class="st0" points="160.3 558.1 129.1 538.7 129.1 485.7 115.1 477 115.1 468.3 124.2 468.3 124.2 471.9 138.3 480.6 138.3 533.6 165.5 550.5 160.3 558.1"/>
    <polygon class="st0" points="463.2 468.3 374.3 585.7 336.6 605.5 173.7 575.6 166 565.4 197.4 519.5 344.8 562 370.9 555.3 447.2 468.3 463.2 468.3"/>
    <polygon class="st0" points="477.9 514.9 480.1 536.1 480.3 537.3 479.1 538 308.2 647.5 305.8 649 303.4 647.5 214.6 592 239.9 597 308.2 639.7 303.4 639.7 476.7 534.2 475.7 536.1 477.9 514.9 477.9 514.9"/>
    <polygon class="st1" points="194.1 579.3 270.8 593.4 301.2 549.5 228.3 528.4 194.1 579.3"/>
    <rect class="st5" x="179" y="550.6" width="69.2" height="8" transform="translate(-364.7 417.7) rotate(-55.6)"/>
    <rect class="st5" x="205.1" y="555.1" width="65" height="8" transform="translate(-358 439.4) rotate(-55.6)"/>
    <rect class="st5" x="227.3" y="562.4" width="64.6" height="8" transform="translate(-354.4 460.8) rotate(-55.6)"/>
    <rect class="st5" x="252.7" y="566.8" width="62" height="8" transform="translate(-347.6 482.6) rotate(-55.6)"/>
    <g>
      <path class="st1" d="M284.5,502.5l-10.4,9.9h10.8l-.4,5.6h-14.8l-2.1-3v-4l10.4-10.3v-7.8h-3.9v5.5l-6.5-.9v-5.6l3.9-4.3h9.1l3.9,4.3v10.5Z"/>
      <path class="st1" d="M291.3,518l-3.9-4.3v-21.7l3.9-4.3h9.1l3.9,4.3v21.7l-3.9,4.3h-9.1ZM296.5,512.8l1.3-1.3v-17.2l-1.3-1.3h-1.3l-1.3,1.3v17.2l1.3,1.3h1.3Z"/>
      <path class="st1" d="M324.6,502.5l-10.4,9.9h10.8l-.4,5.6h-14.8l-2.1-3v-4l10.4-10.3v-7.8h-3.9v5.5l-6.5-.9v-5.6l3.9-4.3h9.1l3.9,4.3v10.5Z"/>
      <path class="st1" d="M340.5,499.7l3.9,4.3v9.6l-3.9,4.3h-9l-3.5-4.4v-21.6l3.5-4.3h9l3.9,4.3v4.3l-6.1,1v-2.7l-1.2-1.3h-1.7l-1.2,1.3v6.3l1.3-1.1h4.9ZM337.2,505.3h-1.6l-1.3,1.1v5.9h4v-5.7l-1.2-1.3Z"/>
    </g>
    <g>
      <path class="st1" d="M138.2,453.6v-38h16.6l4.3,5.4v9.5l-3.5,3.4h0c0,.1,3.8,3.4,3.8,3.4v10.8l-4.6,5.4h-16.6,0ZM146.3,430.5h3.4l1.6-1.6v-4.7l-1.6-1.6h-3.4v7.9ZM151.3,438.6l-1.6-1.6h-3.4v10h3.4l1.6-1.6v-6.9Z"/>
      <path class="st1" d="M162.4,453.6v-31l4.6-7h11.4l4.9,7v31h-8.1v-5.3h-4.9v5.3h-7.9ZM170.3,441.3h4.9v-16.7l-2.3-3.5h-.3l-2.3,3.5v16.7Z"/>
      <path class="st1" d="M208.1,453.6h-8v-28.9l-1.6-2h-3.3v30.9h-8.1v-38h16l5,5.4v32.6Z"/>
      <path class="st1" d="M219.8,430.4h8.7l4.3,4.9v12.9l-4.9,5.4h-11.9l-4.9-5.4v-5.7l8.1-1.6v6.1h5.4v-10h-8.7l-4.3-4.9v-11l4.9-5.4h11.4l4.9,5.4v5.3l-8.1,1.6v-5.8h-4.9v8.3Z"/>
      <path class="st1" d="M236.1,415.6h8.1v14.2h.8l3.3-14.2h8.1l-5.1,17.4v.4l5.2,20.2h-8.1l-3.3-16.4h-.8v16.4h-8.1v-38Z"/>
      <path class="st1" d="M258.9,453.6v-31l4.6-7h11.4l4.9,7v31h-8.1v-5.3h-4.9v5.3h-7.9ZM266.8,441.3h4.9v-16.7l-2.3-3.5h-.3l-2.3,3.5v16.7ZM268,405.7h5.3v.5l-4,6.4h-1.2v-6.9Z"/>
      <path class="st1" d="M296.6,453.6v-38h16.6l4.3,5.4v9.5l-3.5,3.4h0c0,.1,3.8,3.4,3.8,3.4v10.8l-4.6,5.4h-16.6ZM304.8,430.5h3.4l1.6-1.6v-4.7l-1.6-1.6h-3.4v7.9ZM309.7,438.6l-1.6-1.6h-3.4v10h3.4l1.6-1.6v-6.9Z"/>
      <path class="st1" d="M341.8,415.6v19l-6.1,3.6h0v15.4h-8.7v-15.4l-6.2-3.6v-19h8.1v16.7h4.9v-16.7h8Z"/>
      <path class="st1" d="M353.5,430.4h8.7l4.3,4.9v12.9l-4.9,5.4h-11.9l-4.9-5.4v-5.7l8.1-1.6v6.1h5.4v-10h-8.7l-4.3-4.9v-11l4.9-5.4h11.4l4.9,5.4v5.3l-8.1,1.6v-5.8h-4.9v8.3Z"/>
      <path class="st1" d="M369.8,415.6h18.5l.8,7.6h-6v30.4h-8.1v-30.4h-6l.8-7.6Z"/>
      <path class="st1" d="M392,453.6v-38h15.7l4.9,5.4v12.3l-3.3,3.6,3.6,16.7h-8.1l-2.3-14.9h-2.4v14.9h-8.1ZM403.2,432.2l1.4-1.4v-7.3l-1.4-1.4h-3v10.1h3Z"/>
      <path class="st1" d="M416.4,415.6h8.1v38h-8.1v-38Z"/>
      <path class="st1" d="M433.2,453.6l-4.9-5.4v-27.1l4.9-5.4h11.4l4.9,5.4v6l-8.1,1.8v-5.6h-4.9v22.8h4.9v-6.7l8.1,1.6v7.3l-4.9,5.4h-11.4Z"/>
      <path class="st1" d="M452.5,453.6v-31l4.6-7h11.4l4.9,7v31h-8.1v-5.3h-4.9v5.3h-7.9ZM460.4,441.3h4.9v-16.7l-2.3-3.5h-.3l-2.3,3.5v16.7Z"/>
    </g>
    <polygon class="st5" points="502.1 226.7 501.5 225.2 500.3 224 500.3 262.6 495.4 219.2 465.3 189.1 440.8 213.6 430.3 203.1 394.1 239.2 439.9 285.1 448.3 276.7 479.7 308.1 530.7 257.1 502.1 226.7"/>
    <circle class="st5" cx="364.4" cy="605.5" r="38.5" transform="translate(-291.7 868.3) rotate(-80.8)"/>
    <circle class="st1" cx="364.4" cy="605.5" r="28.4"/>
    <g>
      <path class="st1" d="M54,384.3l-8.3-9.2v-46l8.3-9.2h19.3l8.3,9.2v10.1l-13.8,3v-9.5h-8.3v38.7h8.3v-11.4l13.8,2.8v12.3l-8.3,9.2h-19.3Z"/>
      <path class="st1" d="M111,319.8h13.8v64.5h-13.8v-27.3h-10.5v27.3h-13.8v-64.5h13.8v24.2h10.5v-24.2Z"/>
      <path class="st1" d="M131.2,384.3v-52.6l7.8-11.9h19.3l8.3,11.9v52.6h-13.8v-8.9h-8.3v8.9h-13.4,0ZM144.6,363.4h8.3v-28.4l-3.9-6h-.6l-3.9,6v28.4Z"/>
      <path class="st1" d="M211.5,332.7l-2.8,2.8v48.8h-13.8v-48.8l-2.8-2.8h-2.5l-2.8,2.8v48.8h-13.8v-55.2l9.7-9.2h11.5l7,4.4h.6l7.5-4.4h11.5l9.7,9.2v55.2h-13.5v-48.8l-2.8-2.8h-2.8Z"/>
      <path class="st1" d="M237,384.3v-64.5h26.7l9.2,9.2v22.6l-9.2,9.2h-12.9v23.4h-13.8ZM250.8,349.6h8.3v-18.4h-8.3v18.4Z"/>
      <path class="st1" d="M279,319.8h13.8v64.5h-13.8v-64.5Z"/>
      <path class="st1" d="M307.5,384.3l-8.3-9.2v-46l8.3-9.2h19.3l8.3,9.2v46l-8.3,9.2h-19.3ZM321.3,373.2v-42.4h-8.3v42.4h8.3Z"/>
      <path class="st1" d="M377.2,384.3h-13.5v-49.1l-2.8-3.4h-5.5v52.5h-13.8v-64.5h27.1l8.6,9.2v55.2Z"/>
      <path class="st1" d="M397,345h14.7l7.4,8.3v21.8l-8.3,9.2h-20.3l-8.3-9.2v-9.7l13.8-2.8v10.3h9.2v-16.9h-14.7l-7.4-8.3v-18.7l8.3-9.2h19.3l8.3,9.2v8.9l-13.8,2.8v-9.9h-8.3v14.1Z"/>
      <path class="st1" d="M448.9,319.8h13.8v64.5h-13.8v-27.3h-10.5v27.3h-13.8v-64.5h13.8v24.2h10.5v-24.2Z"/>
      <path class="st1" d="M469.2,319.8h13.8v64.5h-13.8v-64.5Z"/>
      <path class="st1" d="M489.4,384.3v-64.5h26.7l9.2,9.2v22.6l-9.2,9.2h-12.9v23.4h-13.8ZM503.2,349.6h8.3v-18.4h-8.3v18.4Z"/>
      <path class="st1" d="M544.8,345h14.7l7.4,8.3v21.8l-8.3,9.2h-20.3l-8.3-9.2v-9.7l13.8-2.8v10.3h9.2v-16.9h-14.7l-7.4-8.3v-18.7l8.3-9.2h19.3l8.3,9.2v8.9l-13.8,2.8v-9.9h-8.3v14.1Z"/>
    </g>
    <g>
      <path class="st1" d="M148.3,300.4l-3.1,3.1h-3.2l-6.2-4v-24.3h6.1v21.2l1.7,1.3h.2l1.7-1.3v-21.2h6v21.2l1.7,1.3h.2l1.7-1.3v-21.2h6.1v24.3l-6.2,4h-3.2l-3.1-3.1h-.2Z"/>
      <path class="st1" d="M167.5,303.4l-3.6-4v-20.2l3.6-4h8.5l3.6,4v20.2l-3.6,4h-8.5ZM173.6,298.6v-18.6h-3.6v18.6h3.6Z"/>
      <path class="st1" d="M182.5,303.4v-28.3h11.7l3.6,4v9.2l-2.4,2.7,2.7,12.4h-6.1l-1.7-11.1h-1.8v11.1h-6.1ZM190.8,287.5l1-1v-5.5l-1-1.1h-2.2v7.5h2.2Z"/>
      <path class="st1" d="M200.7,303.4v-28.3h6.1v22.7h7.7l-.8,5.7h-13Z"/>
      <path class="st1" d="M229.2,275.1l4,4v20.2l-4,4h-12.5v-28.3h12.5ZM222.8,297.8h2.8l1.6-1.6v-13.8l-1.6-1.6h-2.8v17Z"/>
      <path class="st1" d="M249.4,303.4l-3.6-4v-24.3h6.1v22.7h3.6v-22.7h6.1v24.3l-3.6,4h-8.5Z"/>
      <path class="st1" d="M269.6,275.1l1.6,1.6v26.7h-6.1v-22.7h-2.1l2.1-5.7h4.5Z"/>
      <path class="st1" d="M286.4,275.1l3.2,4v7.1l-2.6,2.6h0c0,0,2.8,2.6,2.8,2.6v8l-3.4,4.1h-8.5l-3.4-4.1v-8l2.8-2.5h0c0,0-2.6-2.6-2.6-2.6v-7.1l3.2-4h8.5ZM282.6,286.2l1.2-1.2v-3.5l-1.1-1.2h-1.1l-1.1,1.2v3.5l1.2,1.2h.9ZM283.8,297v-4.7l-1.2-1.2h-1l-1.1,1.2v4.7l1.1,1.2h1.1l1.1-1.2Z"/>
      <path class="st1" d="M306.3,279v-3.9h12.3l.9,5.7h-6.6l4,16.2h.7l-.7-11.4,5.7,1.7v10.1l-4.5,4.6,1.4,5.5h-5.9l-1-4h-8.1l-2.8-2.8v-11.3l2.8-3.6h3.6l-1.7-6.7ZM307.3,298.6h4l-2-7.8h-2v7.8Z"/>
      <path class="st1" d="M338.3,303.4l-3.6-4v-24.3h6.1v22.7h3.6v-22.7h6.1v24.3l-3.6,4h-8.5Z"/>
      <path class="st1" d="M358.4,275.1l1.6,1.6v26.7h-6.1v-22.7h-2.1l2.1-5.7h4.5Z"/>
      <path class="st1" d="M375.1,286.4l3.6,4v9l-3.6,4h-8.4l-3.2-4.1v-20.2l3.2-4h8.4l3.6,4v4l-5.7.9v-2.5l-1.1-1.2h-1.6l-1.1,1.2v5.8l1.2-1h4.6ZM372,291.6h-1.5l-1.2,1v5.5h3.8v-5.3l-1.1-1.2Z"/>
      <path class="st1" d="M408.1,280.8l-1.2,1.2v21.5h-6.1v-21.5l-1.2-1.2h-1.1l-1.2,1.2v21.5h-6.1v-24.3l4.3-4h5.1l3.1,1.9h.2l3.3-1.9h5.1l4.3,4v24.3h-6v-21.5l-1.2-1.2h-1.2Z"/>
      <path class="st1" d="M419.3,303.4v-28.3h14.2v6.1h-8.1v5.3h7.3v5.7h-7.3v5.3h8.9l-.8,6.1h-14.2Z"/>
      <path class="st1" d="M452.2,303.4h-6v-21.6l-1.2-1.5h-2.4v23.1h-6.1v-28.3h11.9l3.8,4v24.3Z"/>
      <path class="st1" d="M454.5,273.1h4l-.6,8.7h-2.8l-.6-8.7Z"/>
      <path class="st1" d="M466.6,286.2h6.5l3.2,3.6v9.6l-3.6,4h-8.9l-3.6-4v-4.3l6.1-1.2v4.5h4v-7.5h-6.5l-3.2-3.6v-8.2l3.6-4h8.5l3.6,4v3.9l-6.1,1.2v-4.3h-3.6v6.2Z"/>
    </g>
    <g>
      <path class="st5" d="M561,259.8v-58.4l3.7-11.1-14.4-19.7-4.9-35.7,4.1-8.6-6.6-8.2-12.3-65.7-12.3,65.7-6.6,8.2,4.1,8.6-4.9,35.7-14.4,19.7,3.7,11.1-.4,92h51.1l10-33.5h0ZM530.7,240.8h-11.9v-26.5c0-3.3,2.7-6,6-6s6,2.7,6,6v26.5Z"/>
      <polygon class="st0" points="511.7 126.1 515.9 134.7 510.9 170.5 496.5 190.2 522.8 169.8 525.1 128.4 530.7 122.6 530.7 52.2 518.3 117.8 511.7 126.1"/>
      <path class="st1" d="M524.7,208.4h0c3.3,0,6,2.7,6,6v26.5h-11.9v-26.5c0-3.3,2.7-6,6-6Z"/>
    </g>
    <g class="st7">
      <g>
        <path class="st1" d="M299,234l-4.5,15.1h-5.6l4.5-15.1h5.6ZM311.7,238.2c-1.3-.5-2.7-.8-4.1-.8-.9,0-2.4,0-2.7,1-.6,2,7.6.1,5.9,5.9-1.2,4-5.4,5.1-8.6,5.1-2,0-3.9-.2-5.8-.7l1.2-3.9c1.5.7,3.1,1,4.7,1,1.3,0,2.6-.3,2.8-1,.6-2-7.6-.2-5.9-6,1.3-4.1,5.7-4.9,9-4.9,1.6,0,3.1.2,4.7.5l-1.2,3.9h0ZM314.9,234h9.2c2.5,0,4.8.8,3.9,3.7-.6,2.1-2,3.2-4.1,3.7h0c1.9.3,2.7,2,2.3,3.5-1.1,3.8-4.2,4.2-7.3,4.2h-8.5l4.5-15.1h0ZM316.6,246h1.5c1,0,2.3-.4,2.6-1.6.4-1.3-.6-1.5-1.6-1.5h-1.5l-.9,3.1h0ZM318.5,239.8h1.4c1,0,2.1-.3,2.5-1.4.3-1.1-.5-1.5-1.5-1.5h-1.5l-.9,2.9h0ZM340.3,234h5.6l-4.5,15.1h-5.6l1.6-5.4h-3.7l-1.6,5.4h-5.6l4.5-15.1h5.6l-1.5,5.2h3.7l1.6-5.2ZM348.2,234h12.5l-1.1,3.6h-6.9l-.7,2.4h6.7l-1.1,3.6h-6.7l-1.6,5.4h-5.6l4.5-15.1h0,0ZM271.5,213.5c-5-.2-9.9,1.6-13.7,5,3.9,8.6,8.9,18.3,10.2,20.5,3.2,5.4,7.7,4.7,21.2,2.8,1.2-3.1,1.7-6.4,1.4-9.7-.3-3.3-1.4-6.5-3.1-9.3-1.7-2.8-4.1-5.1-6.9-6.7-2.8-1.6-5.9-2.5-9.1-2.7h0,0Z"/>
        <path class="st4" d="M301.4,229.7c-.2.8-.7,1.5-1.3,2-1.2,1.1-3,1.3-4.5.5-.7-.4-1.3-1-1.7-1.7-.8-1.5-.6-3.3.4-4.6.5-.6,1.2-1.1,2-1.4.8-.2,1.6-.2,2.4,0,1,.3,1.9,1.1,2.4,2,.5,1,.6,2.1.3,3.2Z"/>
        <path class="st1" d="M280.7,249.1c-7.6.2-10.6-.5-12.8-3.3-1.8-2.3-7.7-13.9-12.6-24.7-3.1,4-4.7,9.1-4.4,14.3s2.6,10,6.2,13.5c3.6,3.5,8.5,5.5,13.5,5.6,5,0,9.8-1.9,13.5-5.4h-3.5,0Z"/>
      </g>
    </g>
    <polygon class="st0" points="181 200.4 174.7 225.2 234.5 200.4 181 200.4"/>
    <g>
      <g>
        <g id="Vivid.JS">
          <g id="Vivid-Icons">
            <g id="Icons">
              <g id="star">
                <g id="Shape">
                  <polygon class="st2" points="117.4 301.7 109.2 297.2 101.1 301.8 102.8 292.6 96 286.2 105.2 284.9 109 276.3 113 284.8 122.3 285.9 115.5 292.4 117.4 301.7"/>
                </g>
              </g>
            </g>
          </g>
        </g>
        <g id="Vivid.JS1">
          <g id="Vivid-Icons1">
            <g id="Icons1">
              <g id="star1">
                <g id="Shape1">
                  <polygon class="st2" points="81 297.6 75.4 294.6 69.9 297.7 71.1 291.4 66.4 287.1 72.7 286.2 75.3 280.4 78 286.2 84.3 286.9 79.7 291.4 81 297.6"/>
                </g>
              </g>
            </g>
          </g>
        </g>
      </g>
      <g>
        <g id="Vivid.JS2">
          <g id="Vivid-Icons2">
            <g id="Icons2">
              <g id="star2">
                <g id="Shape2">
                  <polygon class="st2" points="496.1 292.4 489.4 285.9 498.6 284.8 502.6 276.3 506.5 284.9 515.7 286.2 508.8 292.6 510.5 301.8 502.4 297.2 494.3 301.7 496.1 292.4"/>
                </g>
              </g>
            </g>
          </g>
        </g>
        <g id="Vivid.JS3">
          <g id="Vivid-Icons3">
            <g id="Icons3">
              <g id="star3">
                <g id="Shape3">
                  <polygon class="st2" points="531.9 291.4 527.3 286.9 533.6 286.2 536.3 280.4 538.9 286.2 545.2 287.1 540.5 291.4 541.7 297.7 536.2 294.6 530.6 297.6 531.9 291.4"/>
                </g>
              </g>
            </g>
          </g>
        </g>
      </g>
    </g>
  </g>
</svg>