<svg xmlns="http://www.w3.org/2000/svg" version="1.1" xmlns:xlink="http://www.w3.org/1999/xlink" xmlns:svgjs="http://svgjs.dev/svgjs" width="284" height="103"><svg width="284" height="103" viewBox="0 0 284 103" fill="none" xmlns="http://www.w3.org/2000/svg">
<g clip-path="url(#clip0_2_114)">
<path d="M124.25 51.45L112.57 89.15H98.0901L109.77 51.45H124.25Z" fill="#007BC0"></path>
<path d="M157 61.76C153.614 60.4793 150.02 59.8384 146.4 59.87C144.13 59.87 140.17 59.93 139.4 62.36C137.88 67.27 159.14 62.63 154.64 77.16C151.51 87.26 140.73 89.8 132.36 89.8C127.304 89.8518 122.263 89.2536 117.36 88.02L120.36 78.24C124.203 79.9269 128.363 80.7725 132.56 80.72C135.96 80.72 139.26 80.02 139.84 78.13C141.41 73.05 120.17 77.65 124.7 63.01C128 52.64 139.35 50.8 147.94 50.8C151.994 50.81 156.036 51.2423 160 52.09L157 61.76Z" fill="#007BC0"></path>
<path d="M165.24 51.45H189C195.54 51.45 201.31 53.55 199.09 60.74C197.48 65.92 193.87 68.68 188.45 69.97V70.08C193.45 70.79 195.45 74.89 194.28 78.67C191.33 88.18 183.36 89.15 175.53 89.15H153.56L165.24 51.45ZM169.59 81.37H173.37C176.02 81.37 179.18 80.37 180.09 77.48C181.09 74.24 178.57 73.65 175.87 73.65H172L169.59 81.37ZM174.39 65.87H178C180.54 65.87 183.53 65.11 184.42 62.25C185.31 59.39 183.18 58.58 180.59 58.58H176.64L174.39 65.87Z" fill="#007BC0"></path>
<path d="M230.69 51.45H245.17L233.49 89.15H219L223.2 75.59H213.53L209.33 89.15H194.86L206.54 51.45H221L217 64.45H226.67L230.69 51.45Z" fill="#007BC0"></path>
<path d="M251.16 51.45H283.46L280.65 60.52H262.83L260.94 66.62H278.22L275.41 75.7H258.12L254 89.15H239.48L251.16 51.45Z" fill="#007BC0"></path>
<path d="M53.0501 -9.22196e-06C40.0624 -0.449068 27.3909 4.0632 17.6101 12.62C27.7001 34.08 40.5901 58.27 44.0001 63.79C52.2701 77.37 63.7801 75.53 98.8101 70.79C101.959 63.1292 103.207 54.8199 102.447 46.5721C101.686 38.3243 98.9407 30.3831 94.4442 23.4271C89.9477 16.4711 83.8341 10.7071 76.6257 6.62745C69.4173 2.54782 61.3284 0.273905 53.0501 -9.22196e-06Z" fill="#007BC0"></path>
<path d="M130.34 40.65C129.749 42.6343 128.582 44.3984 126.987 45.7191C125.393 47.0397 123.442 47.8574 121.382 48.0686C119.323 48.2798 117.247 47.875 115.417 46.9055C113.588 45.9359 112.087 44.4453 111.106 42.6223C110.124 40.7993 109.706 38.726 109.903 36.665C110.101 34.604 110.906 32.6479 112.216 31.0446C113.526 29.4414 115.282 28.2629 117.263 27.6586C119.243 27.0543 121.358 27.0513 123.34 27.65C125.988 28.4525 128.21 30.2702 129.522 32.706C130.833 35.1419 131.127 37.9979 130.34 40.65Z" fill="#E6732F"></path>
<path d="M76.84 89.15C57.2 89.64 49.4701 87.78 43.84 80.81C39.19 75.07 23.84 46 11.41 19.09C3.28795 29.1512 -0.733428 41.9093 0.151249 54.8095C1.03593 67.7096 6.76134 79.7993 16.1809 88.6575C25.6005 97.5157 38.0188 102.488 50.9489 102.58C63.879 102.671 76.3663 97.8743 85.91 89.15H76.84Z" fill="#007BC0"></path>
</g>
<defs>
<clipPath id="SvgjsClipPath1149">
<rect width="283.46" height="102.59" fill="white"></rect>
</clipPath>
</defs>
</svg><style>@media (prefers-color-scheme: light) { :root { filter: none; } }
@media (prefers-color-scheme: dark) { :root { filter: none; } }
</style></svg>