<svg width="20" height="20" viewBox="0 0 20 20" fill="none" xmlns="http://www.w3.org/2000/svg">
<path d="M14.0971 4.83559C14.2832 4.83559 14.6004 4.86568 15.0488 4.92585C15.4971 4.98603 15.9877 5.15796 16.5206 5.44165C17.062 5.71674 17.5526 6.17666 17.9925 6.82141C17.9671 6.8472 17.8444 6.94176 17.6245 7.10509C17.4046 7.25983 17.1593 7.49194 16.8886 7.80142C16.6179 8.1023 16.381 8.48915 16.178 8.96196C15.975 9.42618 15.8735 9.98066 15.8735 10.6254C15.8735 11.3647 16.0004 11.9923 16.2542 12.5081C16.5164 13.0239 16.8167 13.4408 17.155 13.7589C17.5019 14.0683 17.8064 14.2962 18.0686 14.4423C18.3393 14.5884 18.4831 14.6658 18.5 14.6744C18.4915 14.7088 18.3816 15.014 18.1701 15.5899C17.9671 16.1659 17.6287 16.8064 17.155 17.5113C16.7406 18.1216 16.2922 18.6847 15.8101 19.2005C15.3364 19.7163 14.7654 19.9742 14.0971 19.9742C13.6488 19.9742 13.2809 19.9097 12.9933 19.7808C12.7057 19.6432 12.4096 19.51 12.1051 19.381C11.8006 19.2435 11.3903 19.1747 10.8743 19.1747C10.3752 19.1747 9.95652 19.2435 9.61816 19.381C9.28826 19.5186 8.97106 19.6561 8.66653 19.7937C8.37047 19.9312 8.01943 20 7.6134 20C6.9959 20 6.45453 19.7507 5.98929 19.2521C5.52406 18.7535 5.04613 18.156 4.55551 17.4597C3.98877 16.6344 3.50238 15.6286 3.09635 14.4423C2.69878 13.2474 2.5 12.0438 2.5 10.8317C2.5 9.53363 2.74108 8.44616 3.22324 7.56931C3.70539 6.68386 4.32289 6.01762 5.07573 5.5706C5.83703 5.11498 6.62371 4.88717 7.43577 4.88717C7.86717 4.88717 8.2732 4.96024 8.65385 5.10638C9.0345 5.24393 9.38977 5.38577 9.71967 5.53191C10.058 5.67806 10.3625 5.75113 10.6332 5.75113C10.8955 5.75113 11.2 5.67376 11.5468 5.51902C11.8936 5.36428 12.2827 5.21384 12.7141 5.0677C13.1455 4.91296 13.6065 4.83559 14.0971 4.83559ZM13.3993 3.19794C13.0694 3.60198 12.6549 3.94154 12.1558 4.21663C11.6568 4.48313 11.1831 4.61638 10.7347 4.61638C10.6417 4.61638 10.5529 4.60778 10.4683 4.59059C10.4598 4.5648 10.4514 4.51752 10.4429 4.44874C10.4344 4.37997 10.4302 4.3069 10.4302 4.22953C10.4302 3.71373 10.5402 3.21513 10.7601 2.73372C10.98 2.24371 11.2296 1.83967 11.5087 1.5216C11.864 1.09177 12.3123 0.73501 12.8537 0.451322C13.3951 0.167634 13.911 0.0171932 14.4017 0C14.427 0.111756 14.4397 0.245003 14.4397 0.399742C14.4397 0.915538 14.3425 1.41844 14.1479 1.90845C13.9533 2.38986 13.7038 2.81969 13.3993 3.19794Z" fill="white"/>
</svg>
