<svg width="36" height="36" viewBox="0 0 36 36" fill="none" xmlns="http://www.w3.org/2000/svg">
<path d="M18.2817 0.0106413C13.6434 -0.145677 9.118 1.42505 5.625 4.4037C9.22844 11.874 13.8318 20.2946 15.0496 22.2161C18.0031 26.9433 22.1137 26.3028 34.6239 24.6528C35.7486 21.9861 36.1942 19.0936 35.9226 16.2225C35.6511 13.3514 34.6705 10.5871 33.0647 8.16569C31.4589 5.74429 29.2755 3.7378 26.7012 2.31768C24.1269 0.897547 21.2381 0.105992 18.2817 0.0106413Z" fill="#F7602B"/>
<path d="M27.167 31.2946C20.2204 31.4663 17.4863 30.8147 15.495 28.3728C13.8504 26.3619 8.42114 16.1776 4.02471 6.75C1.15196 10.2748 -0.270377 14.7445 0.0425294 19.2639C0.355435 23.7833 2.38049 28.0187 5.71214 31.1221C9.0438 34.2254 13.4361 35.9676 18.0094 35.9995C22.5827 36.0315 26.9994 34.3511 30.375 31.2946H27.167Z" fill="#F7602B"/>
</svg>
