<svg width="70" height="22" viewBox="0 0 70 22" fill="none" xmlns="http://www.w3.org/2000/svg">
<path fill-rule="evenodd" clip-rule="evenodd" d="M29.5481 9.4613C30.1806 9.43511 30.803 9.63141 31.3142 10.0183C31.7686 10.3835 32.0237 10.9546 31.9983 11.55C32.012 12.0485 31.874 12.5388 31.6039 12.9515C31.3239 13.3502 30.9519 13.6698 30.5219 13.8811C30.0097 14.1346 29.4639 14.3077 28.9024 14.3946C28.2377 14.5047 27.5652 14.5574 26.8921 14.552C26.8903 14.7317 26.921 14.9102 26.9828 15.0782C27.0473 15.2375 27.153 15.3752 27.2882 15.4761C27.4577 15.5979 27.6486 15.6839 27.8501 15.7293C28.1405 15.796 28.4375 15.8269 28.7349 15.8215C29.1348 15.8244 29.5336 15.7789 29.9233 15.6859C30.1921 15.6277 30.4554 15.5454 30.7104 15.4399L30.3125 17.1525C30.1641 17.2013 30.0001 17.2465 29.8256 17.2917C29.3433 17.4071 28.8495 17.463 28.3545 17.4581C27.8343 17.4685 27.3161 17.3872 26.8223 17.2176C26.4298 17.0828 26.0718 16.8578 25.7752 16.5593C25.5072 16.2776 25.3048 15.9362 25.1836 15.5611C25.0566 15.1522 24.9947 14.7247 25.0004 14.2952C25.0004 13.6742 25.1049 13.0579 25.3092 12.4741C25.5037 11.9013 25.8083 11.3753 26.2045 10.9279C27.0633 9.96303 28.2818 9.42856 29.5481 9.4613ZM29.5237 12.7271C29.7256 12.6274 29.8989 12.4746 30.0263 12.2841C30.1118 12.1486 30.1606 11.9918 30.1676 11.8302C30.1782 11.606 30.0824 11.3906 29.9111 11.2533C29.697 11.1053 29.4421 11.0335 29.1851 11.0489C28.6869 11.0552 28.2048 11.2333 27.8152 11.5553C27.3801 11.8953 27.0788 12.4378 26.9113 13.1828C27.4537 13.1935 27.9959 13.1511 28.5307 13.0563C28.8756 12.9981 29.2102 12.8871 29.5237 12.7271Z" fill="#FAFAFA"/>
<path d="M35.7662 9.31507C36.0841 9.13341 36.4508 9.04278 36.8219 9.05415C37.2869 9.04636 37.7505 9.10461 38.1973 9.22694C38.534 9.3213 38.8536 9.46346 39.1452 9.64856L40 8.17808C39.8922 8.11588 39.7516 8.04331 39.5817 7.96209C39.3854 7.86667 39.1806 7.78747 38.9699 7.72537C38.6992 7.64656 38.4234 7.58423 38.1443 7.53875C37.7956 7.48253 37.4423 7.45593 37.0886 7.45926C35.8892 7.45926 34.9638 7.73285 34.3123 8.28003C33.6583 8.83618 33.2985 9.63792 33.3297 10.4693C33.3217 10.7905 33.3711 11.1106 33.4758 11.4162C33.5646 11.6599 33.7002 11.8861 33.8758 12.0832C34.049 12.2728 34.2531 12.4349 34.4804 12.5636C34.7142 12.6984 34.968 12.8331 35.2384 12.9679C35.4575 13.0733 35.6621 13.1753 35.8539 13.279C36.0322 13.3768 36.1988 13.4927 36.3507 13.6245C36.4873 13.7415 36.6006 13.8808 36.6849 14.0358C36.7692 14.1918 36.8113 14.3652 36.8073 14.5404C36.8153 14.7562 36.761 14.9701 36.6502 15.159C36.5468 15.3224 36.4065 15.4623 36.2393 15.5685C36.0578 15.6813 35.855 15.7599 35.642 15.8C35.4016 15.8462 35.1567 15.8688 34.9114 15.8674C34.6429 15.8681 34.3749 15.8437 34.1114 15.7948C33.8746 15.754 33.6413 15.6962 33.4137 15.622C33.2208 15.5531 33.0329 15.4723 32.8511 15.3801C32.6813 15.2972 32.5443 15.2246 32.4347 15.1624V15.171L32 16.8713C32.2054 16.9813 32.4213 17.0727 32.6447 17.1444C32.936 17.2369 33.2339 17.3096 33.5361 17.3621C33.9223 17.4291 34.3142 17.4615 34.7068 17.4588C36.017 17.4588 37.0301 17.1852 37.7461 16.6381C38.4621 16.0909 38.8219 15.2885 38.8256 14.2311C38.8332 13.8941 38.7762 13.5587 38.6575 13.2409C38.5496 12.9736 38.3912 12.7271 38.19 12.5135C37.9861 12.2994 37.749 12.1158 37.4868 11.9692C37.1957 11.8042 36.8958 11.6536 36.5881 11.5182C36.2712 11.3892 35.9719 11.2245 35.6968 11.0275C35.4461 10.8319 35.3102 10.5342 35.3315 10.2274C35.3315 9.79371 35.4758 9.49132 35.7662 9.31507Z" fill="#FAFAFA"/>
<path fill-rule="evenodd" clip-rule="evenodd" d="M43.1915 9.95898C44.1578 9.95898 44.8699 10.2032 45.3207 10.6968C45.7845 11.2231 46.0267 11.9048 45.9977 12.6019C45.9958 13.2331 45.8964 13.8603 45.703 14.4619C45.528 15.0416 45.2396 15.5818 44.8541 16.0518C44.4575 16.5208 43.9595 16.896 43.3967 17.1498C42.749 17.4354 42.0449 17.5744 41.3359 17.5568C41.1272 17.5568 40.964 17.5499 40.8483 17.5395C40.7479 17.5313 40.6482 17.5157 40.5501 17.4928L40.1608 19.0515L38 19.959L40.3502 10.4491C40.5776 10.3543 40.8121 10.2772 41.0517 10.2188C41.3061 10.1564 41.5586 10.1045 41.8164 10.0646C42.0436 10.0295 42.2599 10.0092 42.4701 9.98948C42.4985 9.98682 42.5267 9.98417 42.5548 9.9815C42.7916 9.95898 43.0038 9.95898 43.1915 9.95898ZM43.3476 14.9675C43.5915 14.6655 43.7765 14.3214 43.893 13.9526C44.0211 13.5597 44.0868 13.1496 44.0877 12.7368C44.0881 12.5855 44.0722 12.4346 44.0404 12.2865C44.0107 12.1458 43.9509 12.013 43.865 11.8969C43.7717 11.776 43.6468 11.6826 43.5037 11.6267C43.3083 11.5514 43.0995 11.5161 42.8898 11.5228C42.714 11.5211 42.5382 11.531 42.3637 11.5522C42.2342 11.5708 42.106 11.5968 41.9796 11.6302L40.9272 15.8802C40.9831 15.902 41.0427 15.9126 41.1026 15.9114H41.3078C41.7101 15.9195 42.1085 15.8334 42.4707 15.6603C42.8107 15.4955 43.1101 15.259 43.3476 14.9675Z" fill="#FAFAFA"/>
<path fill-rule="evenodd" clip-rule="evenodd" d="M46.646 16.6753C47.0779 17.1965 47.7381 17.457 48.6266 17.457C49.2892 17.4781 49.9465 17.3291 50.5381 17.0237C51.0716 16.7399 51.5379 16.3407 51.9044 15.8539C52.2758 15.3608 52.5548 14.802 52.7274 14.2057C52.9077 13.5974 52.9995 12.9654 53 12.33C53 11.3804 52.764 10.6649 52.292 10.1835C51.7942 9.69226 51.1203 9.43118 50.4283 9.46133C49.7678 9.44584 49.1138 9.59651 48.5239 9.90002C47.9866 10.185 47.5153 10.5839 47.1416 11.0699C46.7659 11.5637 46.4794 12.1218 46.2956 12.7181C46.1036 13.3267 46.0039 13.9617 46 14.601C45.9982 15.4658 46.2124 16.1554 46.646 16.6753ZM49.8691 15.4387C49.6292 15.6295 49.3325 15.7308 49.0283 15.7257H49.0337C48.6 15.7257 48.3115 15.5777 48.1699 15.287C48.0116 14.9088 47.939 14.4991 47.9576 14.0883C47.9619 13.7628 48.0083 13.4392 48.0956 13.1261C48.1786 12.7953 48.3054 12.4777 48.4726 12.1819C48.634 11.9018 48.8474 11.6565 49.1009 11.4598C49.3392 11.2708 49.6328 11.1691 49.9345 11.1709C50.3841 11.1727 50.6761 11.319 50.8195 11.6096C50.9777 11.9878 51.0497 12.3977 51.0301 12.8083C51.0205 13.4809 50.8374 14.1391 50.4991 14.7165C50.3325 14.9932 50.1191 15.2377 49.8691 15.4387Z" fill="#FAFAFA"/>
<path d="M59.0238 9.35498L58.9745 9.56323L59.0256 9.35498H59.0238Z" fill="#FAFAFA"/>
<path d="M59 9.52458L58.9812 9.61231L58.605 11.3164L58.5777 11.4433C58.3068 11.4115 58.0345 11.396 57.762 11.3967C57.4876 11.3969 57.2135 11.4162 56.9413 11.4545C56.6772 11.4863 56.4169 11.5489 56.165 11.6412L54.8809 17.459H53L54.6261 10.1181C55.6246 9.69566 56.6844 9.47249 57.7552 9.45926C58.1709 9.45626 58.5865 9.47806 59 9.52458Z" fill="#FAFAFA"/>
<path d="M60.0651 14.4119C60.018 14.6109 59.9907 14.8138 59.9834 15.0178C59.9834 15.3295 60.0899 15.5372 60.3063 15.6394C60.5375 15.7458 60.7905 15.7997 61.0461 15.7969C61.3446 15.7961 61.6421 15.763 61.9332 15.6982C62.2359 15.632 62.5326 15.5416 62.8202 15.4282V15.4489L62.3909 17.1802C62.168 17.2528 61.9404 17.3106 61.7096 17.3534C61.3188 17.4242 60.9221 17.4596 60.5245 17.459C59.6742 17.459 59.0414 17.2789 58.6263 16.9188C58.2111 16.5587 58.0024 16.0393 58 15.3606C58.0008 15.1916 58.0121 15.0228 58.0337 14.8551C58.0553 14.6664 58.0909 14.4795 58.1402 14.2959L58.5074 12.8104L58.7646 11.7717L58.8161 11.5656L59.2082 9.97976L59.563 8.55663L61.809 7.45898L61.1614 9.99015H64L63.6044 11.5829H60.7765L60.0651 14.4119Z" fill="#FAFAFA"/>
<path d="M66.3182 11.2338C66.4446 11.1807 66.5786 11.146 66.7157 11.131C66.8408 11.116 66.9666 11.1082 67.0926 11.1076C67.5147 11.1019 67.9361 11.1406 68.3494 11.223C68.6547 11.2904 68.9516 11.389 69.235 11.5169L70 9.95154C69.6355 9.79453 69.2529 9.6795 68.86 9.60888C68.3414 9.5055 67.8127 9.45532 67.2829 9.45919C66.1222 9.45919 65.2517 9.69424 64.6713 10.1643C64.0912 10.6319 63.7681 11.3289 63.7952 12.0544C63.7907 12.2995 63.8302 12.5435 63.912 12.7758C63.9881 12.9779 64.1082 13.1624 64.2643 13.3168C64.4372 13.483 64.6362 13.6224 64.8541 13.7298C65.1219 13.8616 65.3989 13.9755 65.6832 14.0707C65.9413 14.1698 66.1542 14.251 66.3219 14.3231C66.4627 14.3781 66.5962 14.449 66.7195 14.5341C66.8032 14.5912 66.8722 14.6659 66.9211 14.7524C66.9616 14.8334 66.9816 14.9223 66.9795 15.0121C66.9733 15.2368 66.8446 15.442 66.6404 15.5531C66.4143 15.7046 66.0035 15.7791 65.4081 15.7767C64.9268 15.787 64.4474 15.7144 63.993 15.5621C63.7838 15.4882 63.5992 15.4178 63.439 15.3493L63 17.068C63.1017 17.1059 63.2167 17.142 63.3392 17.178C63.6376 17.263 63.9416 17.3286 64.2493 17.3746C64.6521 17.433 65.0591 17.4608 65.4665 17.4576C66.0275 17.4705 66.587 17.3955 67.1227 17.2357C67.5362 17.1125 67.9203 16.9127 68.2533 16.6478C68.7821 16.2128 69.0885 15.5802 69.0937 14.9129C69.0991 14.6501 69.0629 14.388 68.9863 14.1356C68.9143 13.9268 68.7938 13.7362 68.6339 13.5783C68.4557 13.4043 68.252 13.256 68.0291 13.1383C67.7469 12.9926 67.4562 12.8626 67.1585 12.7487C66.8778 12.6513 66.6536 12.5684 66.484 12.489C66.3461 12.4303 66.2159 12.3565 66.0958 12.269C66.0178 12.2166 65.957 12.144 65.9206 12.0598C65.8902 11.9789 65.8755 11.8933 65.8773 11.8073C65.873 11.6806 65.9188 11.557 66.0054 11.461C66.0912 11.3645 66.1979 11.287 66.3182 11.2338Z" fill="#FAFAFA"/>
<path d="M59.0203 9.37158L58.9781 9.54658L59.022 9.37158H59.0203Z" fill="#FAFAFA"/>
<path d="M59.0212 9.37158L58.9772 9.54658L59.0229 9.37158H59.0212Z" fill="#FAFAFA"/>
<path d="M21 10.959C21 16.758 16.299 21.459 10.5 21.459C4.70101 21.459 0 16.758 0 10.959C0 5.15999 4.70101 0.458985 10.5 0.458985C13.2849 0.458518 15.9559 1.56461 17.9251 3.53385C19.8944 5.50308 21.0005 8.17407 21 10.959Z" fill="#FAFAFA"/>
<path d="M13 5.46066C12.9991 6.56523 12.1029 7.45991 10.9983 7.45898C9.89376 7.45806 8.99908 6.56188 9 5.45731C9.00093 4.35274 9.8971 3.45806 11.0017 3.45899C11.5322 3.45898 12.041 3.66998 12.4159 4.04546C12.7907 4.42095 13.0009 4.93009 13 5.46066Z" fill="#003A5F"/>
<path fill-rule="evenodd" clip-rule="evenodd" d="M16.0107 8.93003C16.4979 9.09402 16.9378 9.4534 16.9905 9.97677C17.0505 10.4042 16.8142 10.8054 16.5924 11.1544C16.0615 11.9604 15.4383 12.7071 14.7346 13.3804C13.9166 14.1934 13.055 14.9505 12.1752 15.6954C12.7405 16.1351 13.3131 16.5677 13.8948 16.9882L13.8366 17.044L12.686 18.1431L12.3588 18.4588C12.3497 18.4661 12.0142 18.2087 11.8789 18.1049C11.852 18.0843 11.8331 18.0698 11.8261 18.0646L11.1917 17.5778C9.33938 16.1612 7.51612 14.6906 5.92008 13.021C5.28748 12.3598 4.65852 11.6533 4.2277 10.8508C4.11968 10.668 4.04586 10.4684 4.00956 10.2611C3.97687 10.0126 4.0285 9.76055 4.15681 9.54238C4.4113 9.12019 4.87121 8.94399 5.34202 8.83059C6.33955 8.59005 7.38377 8.54521 8.40988 8.50115C8.49261 8.4976 8.57523 8.49405 8.6577 8.4904C9.5248 8.45202 10.3955 8.45551 11.2644 8.46598C12.3576 8.46892 13.4498 8.52716 14.5365 8.64044C14.7874 8.67009 15.0418 8.7015 15.2909 8.75209C15.42 8.77651 15.549 8.80268 15.6781 8.83583C15.7919 8.85681 15.9033 8.88836 16.0107 8.93003ZM10.5264 14.3291L10.6663 14.2122L10.6754 14.207C11.3862 13.6139 12.0861 13.005 12.7586 12.37C13.3238 11.8497 13.8528 11.2943 14.342 10.7074C14.0366 10.669 13.7294 10.6446 13.4221 10.6237C12.2787 10.5382 11.1299 10.526 9.98467 10.5382C8.87868 10.5352 7.77344 10.5935 6.67444 10.7126C7.20805 11.3503 7.78623 11.9524 8.40499 12.5148C8.76007 12.8497 9.12363 13.1783 9.49568 13.5005C9.68837 13.6691 9.88287 13.8354 10.0792 13.9994L10.3882 14.2611L10.47 14.3291C10.4882 14.3605 10.5082 14.3605 10.5264 14.3291Z" fill="#003A5F"/>
</svg>
