<svg width="160" height="105" viewBox="0 0 160 105" fill="none" xmlns="http://www.w3.org/2000/svg">
<path d="M70.1301 29.0894L63.5338 50.4089H55.3604L61.9566 29.0894H70.1301Z" fill="#FAFAFA"/>
<path d="M88.6289 34.9248C86.9956 34.2857 84.9627 33.8574 82.6425 33.8574C81.3667 33.8574 79.1305 33.8855 78.7029 35.2618C77.8407 38.0426 89.8486 35.4163 87.304 43.6324C85.5375 49.3414 79.453 50.781 74.7213 50.781C71.5809 50.781 69.0854 50.472 66.2534 49.7698L67.9638 44.2433C69.8775 45.1562 72.4081 45.6477 74.8475 45.6477C76.7682 45.6477 78.6258 45.2475 78.9623 44.1801C79.8455 41.308 67.8587 43.9062 70.4173 35.627C72.2328 29.7634 78.6539 28.7241 83.4977 28.7241C85.7829 28.7241 88.2293 28.998 90.3112 29.4544L88.6219 34.9177L88.6289 34.9248Z" fill="#FAFAFA"/>
<path d="M93.2763 29.0894H106.665C110.359 29.0894 113.612 30.2831 112.357 34.342C111.453 37.2773 109.413 38.8292 106.357 39.5666L106.336 39.6298C109.175 40.03 110.282 42.3474 109.623 44.4891C107.962 49.8682 103.462 50.4159 99.0384 50.4159H86.687L93.2763 29.0964V29.0894ZM95.7227 46.013H97.8537C99.3468 46.013 101.134 45.4652 101.646 43.815C102.214 41.9822 100.791 41.6451 99.2697 41.6451H97.0756L95.7297 46.013H95.7227ZM98.4355 37.2492H100.475C101.912 37.2492 103.595 36.8209 104.099 35.2057C104.59 33.6187 103.399 33.1271 101.933 33.1271H99.7043L98.4285 37.2492H98.4355Z" fill="#FAFAFA"/>
<path d="M130.211 29.0894H138.385L131.795 50.4089H123.622L125.991 42.7406H120.531L118.161 50.4089H109.988L116.584 29.0894H124.758L122.479 36.4487H127.94L130.218 29.0894H130.211Z" fill="#FAFAFA"/>
<path d="M141.764 29.0894H159.996L158.412 34.2226H148.346L147.28 37.6705H157.038L155.454 42.8038H145.696L143.348 50.4089H135.174L141.764 29.0894Z" fill="#FAFAFA"/>
<path d="M29.9493 0.0170528C22.3226 -0.24277 15.2777 2.48186 9.9502 7.13761C15.6422 19.2721 22.9184 32.9444 24.8181 36.0693C29.4867 43.7446 35.9848 42.7053 55.7526 40.0088C57.0214 36.9119 57.7714 33.5413 57.8976 29.995C58.4374 13.9913 45.9248 0.564788 29.9493 0.0170528Z" fill="#FAFAFA"/>
<path d="M73.5716 22.9869C72.6253 26.1188 69.3306 27.8814 66.2042 26.9404C63.0778 25.9924 61.3184 22.692 62.2647 19.56C63.211 16.4281 66.5057 14.6655 69.625 15.6135C72.7514 16.5615 74.5109 19.862 73.5716 22.9939V22.9869Z" fill="#F7602B"/>
<path d="M43.3732 50.4157C32.2906 50.6896 27.9235 49.6433 24.734 45.7038C22.1053 42.4595 13.4692 26.0204 6.42427 10.8032C2.6109 15.5152 0.241574 21.477 0.0172581 28.0148C-0.529511 44.0255 11.9831 57.445 27.9585 57.9927C35.8376 58.2596 43.0858 55.3524 48.4764 50.4157H43.3732Z" fill="#FAFAFA"/>
<path d="M3.8584 69.8955H5.84219V78.9331H3.8584V69.8955Z" fill="#FAFAFA"/>
<path d="M7.58789 69.8955H9.55766L13.322 75.9557H13.35V69.8955H15.2076V78.9331H13.2238L9.47354 72.887H9.4455V78.9331H7.58789V69.8955Z" fill="#FAFAFA"/>
<path d="M18.9436 71.5668H16.2378V69.8955H23.6262V71.5668H20.9204V78.9331H18.9366V71.5668H18.9436Z" fill="#FAFAFA"/>
<path d="M24.6636 69.8955H31.4071V71.5668H26.6474V73.5049H31.0215V75.0498H26.6474V77.2618H31.5122V78.9331H24.6636V69.8955Z" fill="#FAFAFA"/>
<path d="M32.8511 69.8955H37.7159C39.3352 69.8955 40.3586 71.0191 40.3586 72.3884C40.3586 73.4488 39.945 74.2493 38.9286 74.6496V74.6777C39.903 74.9445 40.1764 75.8644 40.2395 76.7914C40.2745 77.3602 40.2535 78.4346 40.618 78.9331H38.6342C38.4099 78.3643 38.4169 77.4936 38.3188 76.7703C38.1786 75.8223 37.8141 75.401 36.8187 75.401H34.8349V78.9331H32.8511V69.8955ZM34.8349 73.9825H37.0079C37.9052 73.9825 38.3748 73.6033 38.3748 72.6904C38.3748 71.7775 37.9052 71.4404 37.0079 71.4404H34.8349V73.9825Z" fill="#FAFAFA"/>
<path d="M41.978 69.8955H43.9478L47.7121 75.9557H47.7401V69.8955H49.5977V78.9331H47.614L43.8637 72.887H43.8356V78.9331H41.978V69.8955Z" fill="#FAFAFA"/>
<path d="M53.8038 69.8955H55.8367L59.2084 78.9331H57.1475L56.4675 76.9178H53.0958L52.3878 78.9331H50.376L53.7968 69.8955H53.8038ZM53.6075 75.4361H55.9418L54.8062 72.1216H54.7782L53.6005 75.4361H53.6075Z" fill="#FAFAFA"/>
<path d="M61.9914 71.5668H59.2856V69.8955H66.674V71.5668H63.9682V78.9331H61.9844V71.5668H61.9914Z" fill="#FAFAFA"/>
<path d="M67.7114 69.8955H69.6952V78.9331H67.7114V69.8955Z" fill="#FAFAFA"/>
<path d="M75.4783 69.6848C78.2542 69.6848 79.9085 71.7704 79.9085 74.4529C79.9085 77.1354 78.2542 79.1508 75.4783 79.1508C72.7024 79.1508 71.041 77.0652 71.041 74.4529C71.041 71.8406 72.6953 69.6848 75.4783 69.6848ZM75.4783 77.4795C77.2588 77.4795 77.9317 75.9627 77.9317 74.4529C77.9317 72.8729 77.2658 71.3491 75.4783 71.3491C73.6907 71.3491 73.0248 72.8659 73.0248 74.4529C73.0248 76.0399 73.6978 77.4795 75.4783 77.4795Z" fill="#FAFAFA"/>
<path d="M81.2686 69.8955H83.2383L87.0026 75.9557H87.0307V69.8955H88.8883V78.9331H86.9045L83.1542 72.887H83.1262V78.9331H81.2686V69.8955Z" fill="#FAFAFA"/>
<path d="M93.0938 69.8955H95.1267L98.4984 78.9331H96.4375L95.7576 76.9178H92.3858L91.6778 78.9331H89.666L93.0868 69.8955H93.0938ZM92.9046 75.4361H95.2389L94.1033 72.1216H94.0752L92.8976 75.4361H92.9046Z" fill="#FAFAFA"/>
<path d="M99.2837 69.8955H101.267V77.2618H105.663V78.9331H99.2837V69.8955Z" fill="#FAFAFA"/>
<path d="M5.2114 88.5887C5.2114 89.7895 6.14371 90.26 7.20921 90.26C7.90318 90.26 8.96167 90.0563 8.96167 89.1364C8.96167 88.1463 7.59475 88.0128 6.28391 87.6407C4.94502 87.3106 3.59212 86.7418 3.59212 85.0705C3.59212 83.2096 5.33757 82.3389 6.96386 82.3389C8.84951 82.3389 10.5739 83.1605 10.5739 85.2531H8.65324C8.59015 84.1787 7.83308 83.8838 6.87273 83.8838C6.24185 83.8838 5.50581 84.1506 5.50581 84.909C5.50581 85.6042 5.93341 85.7095 8.1976 86.2783C8.87054 86.4328 10.8754 86.8752 10.8754 88.9117C10.8754 90.5689 9.58555 91.8119 7.12509 91.8119C5.12728 91.8119 3.24864 90.8217 3.28369 88.5957H5.20439L5.2114 88.5887Z" fill="#F7602B"/>
<path d="M14.051 84.2209H11.3452V82.5496H18.7336V84.2209H16.0278V91.5872H14.044V84.2209H14.051Z" fill="#F7602B"/>
<path d="M19.7778 82.5495H24.6427C26.262 82.5495 27.2854 83.6731 27.2854 85.0424C27.2854 86.1028 26.8718 86.9033 25.8554 87.3036V87.3317C26.8298 87.5985 27.1031 88.5184 27.1662 89.4454C27.2013 90.0142 27.1802 91.0886 27.5448 91.5801H25.561C25.3296 91.0113 25.3437 90.1406 25.2455 89.4173C25.1053 88.4693 24.7408 88.0479 23.7454 88.0479H21.7616V91.5801H19.7778V82.5425V82.5495ZM21.7616 86.6365H23.9347C24.8319 86.6365 25.3016 86.2572 25.3016 85.3444C25.3016 84.4315 24.8319 84.0944 23.9347 84.0944H21.7616V86.6365Z" fill="#F7602B"/>
<path d="M28.8979 82.5496H35.6414V84.2209H30.8817V86.159H35.2559V87.7039H30.8817V89.9159H35.7466V91.5872H28.8979V82.5496Z" fill="#F7602B"/>
<path d="M37.0854 82.5496H43.8289V84.2209H39.0692V86.159H43.4434V87.7039H39.0692V89.9159H43.9341V91.5872H37.0854V82.5496Z" fill="#F7602B"/>
<path d="M47.2707 84.2209H44.5649V82.5496H51.9533V84.2209H49.2475V91.5872H47.2637V84.2209H47.2707Z" fill="#F7602B"/>
<path d="M61.4937 90.6885C60.7717 91.3977 59.9796 91.7629 58.9561 91.7629C57.3228 91.7629 56.04 90.7657 56.04 89.0523C56.04 87.7883 57.0004 86.9245 58.0589 86.433C57.5682 85.8361 57.1967 85.3094 57.1967 84.5089C57.1967 83.2589 58.3323 82.4443 59.545 82.4443C60.9119 82.4443 62.0194 83.1887 62.0194 84.6072C62.0194 85.6675 61.3255 86.3698 60.4142 86.8613L61.5778 88.2939C61.7671 87.9498 61.8582 87.5846 61.9073 87.2195H63.4635C63.3723 88.027 63.099 88.7995 62.5943 89.4455L64.4238 91.5803H62.2227L61.4867 90.6814L61.4937 90.6885ZM59.0052 87.5987C58.3603 87.8655 57.7434 88.3571 57.7434 89.0944C57.7434 89.7545 58.3603 90.2812 59.0332 90.2812C59.7062 90.2812 60.1338 89.9511 60.5474 89.4806L59.0052 87.5916V87.5987ZM59.6361 83.6522C59.1945 83.6522 58.83 83.9822 58.83 84.4457C58.83 85.0145 59.1945 85.3796 59.538 85.801C60.0427 85.485 60.4633 85.169 60.4633 84.5089C60.4633 84.0384 60.0847 83.6522 59.6431 83.6522H59.6361Z" fill="#F7602B"/>
<path d="M68.6719 82.5496H72.9198C74.6373 82.5496 75.8009 83.1043 75.8009 84.7897C75.8009 85.6885 75.3733 86.2854 74.5742 86.6786C75.6887 86.9946 76.2285 87.8443 76.2285 88.9679C76.2285 90.8007 74.6723 91.5872 73.046 91.5872H68.6719V82.5496ZM70.6557 86.2082H72.6675C73.3755 86.2082 73.8802 85.8922 73.8802 85.1337C73.8802 84.2841 73.2213 84.0945 72.5133 84.0945H70.6557V86.2082ZM70.6557 90.0423H72.7797C73.5507 90.0423 74.2447 89.7895 74.2447 88.8555C74.2447 87.9216 73.6769 87.5634 72.8147 87.5634H70.6557V90.0423Z" fill="#F7602B"/>
<path d="M80.0274 82.5496H82.0603L85.432 91.5872H83.3711L82.6912 89.5718H79.3194L78.6114 91.5872H76.5996L80.0204 82.5496H80.0274ZM79.8382 88.0971H82.1724L81.0369 84.7826H81.0088L79.8312 88.0971H79.8382Z" fill="#F7602B"/>
<path d="M86.2173 82.5496H88.2011V89.9159H92.5963V91.5872H86.2173V82.5496Z" fill="#F7602B"/>
<path d="M93.7109 82.5496H95.6947V89.9159H100.09V91.5872H93.7109V82.5496Z" fill="#F7602B"/>
<path d="M104.716 82.5496H106.7V86.0185H110.352V82.5496H112.336V91.5872H110.352V87.6898H106.7V91.5872H104.716V82.5496Z" fill="#F7602B"/>
<path d="M118.119 82.3389C120.895 82.3389 122.556 84.4245 122.556 87.107C122.556 89.7895 120.902 91.8049 118.119 91.8049C115.336 91.8049 113.689 89.7193 113.689 87.107C113.689 84.4947 115.343 82.3389 118.119 82.3389ZM118.119 90.1336C119.9 90.1336 120.573 88.6168 120.573 87.107C120.573 85.527 119.9 84.0031 118.119 84.0031C116.339 84.0031 115.666 85.5199 115.666 87.107C115.666 88.694 116.339 90.1336 118.119 90.1336Z" fill="#F7602B"/>
<path d="M129.917 85.5902C129.777 84.6914 128.921 84.0102 127.947 84.0102C126.167 84.0102 125.494 85.527 125.494 87.1141C125.494 88.7011 126.167 90.1406 127.947 90.1406C129.16 90.1406 129.84 89.319 129.994 88.1182H131.915C131.711 90.3864 130.169 91.8119 127.947 91.8119C125.171 91.8119 123.51 89.7263 123.51 87.1141C123.51 84.5018 125.164 82.3459 127.947 82.3459C129.917 82.3459 131.599 83.5116 131.837 85.5972H129.917V85.5902Z" fill="#F7602B"/>
<path d="M133.268 82.5495H135.251V86.2924L138.777 82.5495H141.252L137.726 86.1168L141.588 91.5871H139.1L136.387 87.5213L135.251 88.6729V91.5801H133.268V82.5425V82.5495Z" fill="#F7602B"/>
<path d="M142.387 82.5496H149.131V84.2209H144.371V86.159H148.738V87.7039H144.371V89.9159H149.236V91.5872H142.387V82.5496Z" fill="#F7602B"/>
<path d="M152.916 88.069L149.593 82.5496H151.829L153.939 86.1169L156.035 82.5496H158.243L154.893 88.1182V91.5872H152.909V88.069H152.916Z" fill="#F7602B"/>
<path d="M3.8584 95.2036H10.2023V96.8749H5.84219V98.9605H9.6205V100.505H5.84219V104.241H3.8584V95.2036Z" fill="#FAFAFA"/>
<path d="M11.3521 95.2036H18.0955V96.8749H13.3358V98.813H17.71V100.358H13.3358V102.57H18.2007V104.241H11.3521V95.2036Z" fill="#FAFAFA"/>
<path d="M19.5396 95.2036H23.43C25.7643 95.2036 27.5238 96.6853 27.5238 99.6698C27.5238 102.289 26.1849 104.241 23.43 104.241H19.5396V95.2036ZM21.5233 102.57H23.2898C24.4394 102.57 25.54 101.861 25.54 99.8594C25.54 98.0336 24.8951 96.8749 22.9393 96.8749H21.5233V102.57Z" fill="#FAFAFA"/>
<path d="M28.8979 95.2036H35.6414V96.8749H30.8817V98.813H35.2489V100.358H30.8817V102.57H35.7466V104.241H28.8979V95.2036Z" fill="#FAFAFA"/>
<path d="M37.0854 95.2036H41.9503C43.5696 95.2036 44.593 96.3272 44.593 97.6965C44.593 98.7569 44.1794 99.5574 43.163 99.9647V99.9928C44.1374 100.26 44.4107 101.18 44.4738 102.106C44.5089 102.675 44.4879 103.75 44.8524 104.241H42.8686C42.6443 103.672 42.6513 102.802 42.5531 102.078C42.4129 101.13 42.0484 100.709 41.053 100.709H39.0692V104.241H37.0854V95.2036ZM39.0692 99.2976H41.2423C42.1396 99.2976 42.6092 98.9184 42.6092 98.0055C42.6092 97.0926 42.1396 96.7555 41.2423 96.7555H39.0692V99.2976Z" fill="#FAFAFA"/>
<path d="M48.6724 95.2036H50.7053L54.077 104.241H52.0161L51.3362 102.226H47.9645L47.2565 104.241H45.2446L48.6654 95.2036H48.6724ZM48.4832 100.751H50.8175L49.6819 97.4367H49.6538L48.4762 100.751H48.4832Z" fill="#FAFAFA"/>
<path d="M56.8601 96.8749H54.1543V95.2036H61.5427V96.8749H58.8369V104.241H56.8531V96.8749H56.8601Z" fill="#FAFAFA"/>
<path d="M62.5801 95.2036H64.5639V104.241H62.5801V95.2036Z" fill="#FAFAFA"/>
<path d="M70.3469 94.9929C73.1228 94.9929 74.7842 97.0785 74.7842 99.761C74.7842 102.444 73.1298 104.459 70.3469 104.459C67.564 104.459 65.9097 102.373 65.9097 99.761C65.9097 97.1487 67.564 94.9929 70.3469 94.9929ZM70.3469 102.788C72.1274 102.788 72.8004 101.271 72.8004 99.761C72.8004 98.181 72.1274 96.6572 70.3469 96.6572C68.5664 96.6572 67.8935 98.174 67.8935 99.761C67.8935 101.348 68.5664 102.788 70.3469 102.788Z" fill="#FAFAFA"/>
<path d="M76.1372 95.2036H78.107L81.8713 101.264H81.8993V95.2036H83.7569V104.241H81.7731L78.0229 98.1951H77.9948V104.241H76.1372V95.2036Z" fill="#FAFAFA"/>
</svg>
