<svg width="20" height="20" viewBox="0 0 20 20" fill="none" xmlns="http://www.w3.org/2000/svg">
<path d="M20 10.2273C20 9.51818 19.9351 8.83636 19.8145 8.18182H10.2041V12.0545H15.6957C15.4545 13.3 14.731 14.3545 13.6456 15.0636V17.5818H16.9573C18.8868 15.8364 20 13.2727 20 10.2273Z" fill="#4285F4"/>
<path d="M10.2041 20C12.9592 20 15.269 19.1091 16.9573 17.5818L13.6456 15.0636C12.7365 15.6636 11.577 16.0273 10.2041 16.0273C7.55102 16.0273 5.29685 14.2727 4.4898 11.9091H1.09462V14.4909C2.77365 17.7545 6.21521 20 10.2041 20Z" fill="#34A853"/>
<path d="M4.4898 11.9C4.28571 11.3 4.16512 10.6636 4.16512 10C4.16512 9.33636 4.28571 8.7 4.4898 8.1V5.51818H1.09462C0.398887 6.86364 0 8.38182 0 10C0 11.6182 0.398887 13.1364 1.09462 14.4818L3.7384 12.4636L4.4898 11.9Z" fill="#FBBC05"/>
<path d="M10.2041 3.98182C11.7069 3.98182 13.0427 4.49091 14.1095 5.47273L17.0315 2.60909C15.2597 0.990909 12.9592 0 10.2041 0C6.21521 0 2.77365 2.24546 1.09462 5.51818L4.4898 8.1C5.29685 5.73636 7.55102 3.98182 10.2041 3.98182Z" fill="#EA4335"/>
</svg>
