<svg width="25" height="25" viewBox="0 0 25 25" fill="none" xmlns="http://www.w3.org/2000/svg">
<path d="M13.7859 0.460461C14.6615 0.457101 15.5371 0.465901 16.4125 0.48686L16.6453 0.495259C16.9141 0.504859 17.1793 0.516858 17.4997 0.531257C18.7764 0.591254 19.6476 0.792844 20.4119 1.08923C21.2039 1.39401 21.871 1.80679 22.5382 2.47396C23.1482 3.07345 23.6203 3.79863 23.9217 4.59905C24.2181 5.36341 24.4197 6.23576 24.4797 7.5125C24.4941 7.83168 24.5061 8.09807 24.5157 8.36686L24.5229 8.59964C24.5442 9.47463 24.5534 10.3499 24.5505 11.2251L24.5517 12.1203V13.6922C24.5547 14.5678 24.5455 15.4435 24.5241 16.3188L24.5169 16.5516C24.5073 16.8204 24.4953 17.0856 24.4809 17.406C24.4209 18.6827 24.2169 19.5539 23.9217 20.3182C23.6213 21.1195 23.1491 21.8453 22.5382 22.4445C21.9382 23.0545 21.2127 23.5266 20.4119 23.8281C19.6476 24.1244 18.7764 24.326 17.4997 24.386C17.1793 24.4004 16.9141 24.4124 16.6453 24.422L16.4125 24.4292C15.5371 24.4506 14.6615 24.4598 13.7859 24.4568L12.8907 24.458H11.32C10.4443 24.461 9.56871 24.4518 8.69332 24.4304L8.46053 24.4232C8.17568 24.4129 7.89089 24.4009 7.60618 24.3872C6.32944 24.3272 5.45829 24.1232 4.69273 23.8281C3.89199 23.5273 3.16669 23.0551 2.56763 22.4445C1.95692 21.8449 1.48436 21.1193 1.18291 20.3182C0.886521 19.5539 0.684932 18.6827 0.624935 17.406C0.611571 17.1213 0.599571 16.8365 0.588937 16.5516L0.582937 16.3188C0.560814 15.4435 0.550814 14.5678 0.552938 13.6922V11.2251C0.549589 10.3499 0.55839 9.47463 0.579337 8.59964L0.587737 8.36686C0.597336 8.09807 0.609336 7.83168 0.623735 7.5125C0.683732 6.23456 0.885321 5.36461 1.18171 4.59905C1.48334 3.79823 1.95682 3.07326 2.56884 2.47516C3.16748 1.86409 3.89232 1.3911 4.69273 1.08923C5.45829 0.792844 6.32824 0.591254 7.60618 0.531257L8.46053 0.495259L8.69332 0.489259C9.5683 0.467148 10.4435 0.457147 11.3188 0.459261L13.7859 0.460461ZM12.5523 6.46015C11.7574 6.44891 10.9681 6.59577 10.2304 6.89221C9.49272 7.18865 8.82129 7.62875 8.25516 8.18693C7.68902 8.74511 7.23948 9.41025 6.93264 10.1437C6.6258 10.8771 6.46778 11.6642 6.46778 12.4592C6.46778 13.2543 6.6258 14.0414 6.93264 14.7748C7.23948 15.5082 7.68902 16.1734 8.25516 16.7316C8.82129 17.2897 9.49272 17.7298 10.2304 18.0263C10.9681 18.3227 11.7574 18.4696 12.5523 18.4583C14.1435 18.4583 15.6696 17.8262 16.7947 16.7011C17.9199 15.5759 18.552 14.0499 18.552 12.4586C18.552 10.8674 17.9199 9.34138 16.7947 8.21622C15.6696 7.09106 14.1435 6.46015 12.5523 6.46015ZM12.5523 8.86003C13.0305 8.85122 13.5057 8.93778 13.95 9.11467C14.3944 9.29155 14.799 9.5552 15.1403 9.89023C15.4816 10.2253 15.7528 10.6249 15.9379 11.0659C16.123 11.5069 16.2184 11.9804 16.2185 12.4586C16.2185 12.9369 16.1233 13.4104 15.9383 13.8514C15.7534 14.2925 15.4824 14.6923 15.1412 15.0274C14.8 15.3625 14.3954 15.6263 13.9511 15.8034C13.5068 15.9804 13.0317 16.0671 12.5535 16.0585C11.5988 16.0585 10.6832 15.6792 10.0081 15.0041C9.33297 14.329 8.95371 13.4134 8.95371 12.4586C8.95371 11.5039 9.33297 10.5883 10.0081 9.91319C10.6832 9.23809 11.5988 8.85883 12.5535 8.85883L12.5523 8.86003ZM18.852 4.66025C18.4649 4.67574 18.0988 4.84042 17.8304 5.11979C17.562 5.39916 17.4121 5.77155 17.4121 6.15897C17.4121 6.54639 17.562 6.91878 17.8304 7.19815C18.0988 7.47752 18.4649 7.6422 18.852 7.65769C19.2498 7.65769 19.6313 7.49966 19.9126 7.21837C20.1939 6.93708 20.3519 6.55557 20.3519 6.15777C20.3519 5.75996 20.1939 5.37845 19.9126 5.09716C19.6313 4.81587 19.2498 4.65785 18.852 4.65785V4.66025Z" fill="white"/>
</svg>
