<svg width="16" height="16" viewBox="0 0 16 16" fill="none" xmlns="http://www.w3.org/2000/svg">
<path d="M8 1.33331C9.03492 1.33328 10.0296 1.73436 10.775 2.45229C11.5204 3.17022 11.9585 4.14912 11.9973 5.18331L12 5.33331H12.6667C13.0031 5.33321 13.327 5.46025 13.5737 5.68898C13.8204 5.9177 13.9714 6.23121 13.9967 6.56665L14 6.66665V13.3333C14.0001 13.6697 13.8731 13.9937 13.6443 14.2403C13.4156 14.487 13.1021 14.6381 12.7667 14.6633L12.6667 14.6666H3.33333C2.99695 14.6668 2.67296 14.5397 2.4263 14.311C2.17965 14.0823 2.02856 13.7687 2.00333 13.4333L2 13.3333V6.66665C1.99989 6.33026 2.12694 6.00627 2.35566 5.75961C2.58439 5.51296 2.8979 5.36188 3.23333 5.33665L3.33333 5.33331H4C4 4.27245 4.42143 3.25503 5.17157 2.50489C5.92172 1.75474 6.93913 1.33331 8 1.33331ZM12.6667 6.66665H3.33333V13.3333H12.6667V6.66665ZM8 7.99998C8.28439 8.00007 8.56131 8.09109 8.79029 8.25974C9.01928 8.4284 9.18834 8.66585 9.27278 8.93742C9.35722 9.20899 9.35262 9.50044 9.25965 9.76921C9.16667 10.038 8.9902 10.27 8.756 10.4313L8.66667 10.488V11.3333C8.66648 11.5032 8.60141 11.6667 8.48477 11.7902C8.36812 11.9138 8.2087 11.9881 8.03907 11.9981C7.86944 12.0081 7.70241 11.9529 7.57211 11.8438C7.44181 11.7347 7.35807 11.58 7.338 11.4113L7.33333 11.3333V10.488C7.07916 10.3412 6.88052 10.1147 6.76821 9.84352C6.65589 9.57236 6.63619 9.27172 6.71216 8.98822C6.78812 8.70472 6.95551 8.4542 7.18836 8.27552C7.4212 8.09685 7.7065 7.99999 8 7.99998ZM8 2.66665C7.29276 2.66665 6.61448 2.9476 6.11438 3.44769C5.61428 3.94779 5.33333 4.62607 5.33333 5.33331H10.6667C10.6667 4.62607 10.3857 3.94779 9.88562 3.44769C9.38552 2.9476 8.70724 2.66665 8 2.66665Z" fill="white"/>
</svg>
