<svg width="22" height="25" viewBox="0 0 22 25" fill="none" xmlns="http://www.w3.org/2000/svg">
<path d="M16.7224 4.21898C15.811 3.17848 15.3087 1.84223 15.3091 0.458984H11.1891V16.9923C11.1573 17.887 10.7796 18.7345 10.1354 19.3562C9.49129 19.978 8.63101 20.3255 7.73574 20.3257C5.84241 20.3257 4.26908 18.779 4.26908 16.859C4.26908 14.5657 6.48241 12.8457 8.76241 13.5523V9.33898C4.16241 8.72565 0.135742 12.299 0.135742 16.859C0.135742 21.299 3.81574 24.459 7.72241 24.459C11.9091 24.459 15.3091 21.059 15.3091 16.859V8.47232C16.9797 9.67212 18.9856 10.3158 21.0424 10.3123V6.19232C21.0424 6.19232 18.5357 6.31232 16.7224 4.21898Z" fill="white"/>
</svg>
