<svg width="15" height="17" viewBox="0 0 15 17" fill="none" xmlns="http://www.w3.org/2000/svg">
<path d="M7.5 1.66667C6.61594 1.66667 5.7681 2.01786 5.14298 2.64298C4.51786 3.2681 4.16667 4.11594 4.16667 5C4.16667 5.88405 4.51786 6.7319 5.14298 7.35702C5.7681 7.98214 6.61594 8.33333 7.5 8.33333C8.38406 8.33333 9.2319 7.98214 9.85702 7.35702C10.4821 6.7319 10.8333 5.88405 10.8333 5C10.8333 4.11594 10.4821 3.2681 9.85702 2.64298C9.2319 2.01786 8.38406 1.66667 7.5 1.66667ZM2.5 5C2.5 3.67392 3.02678 2.40215 3.96447 1.46447C4.90215 0.526784 6.17392 0 7.5 0C8.82608 0 10.0979 0.526784 11.0355 1.46447C11.9732 2.40215 12.5 3.67392 12.5 5C12.5 6.32608 11.9732 7.59785 11.0355 8.53553C10.0979 9.47322 8.82608 10 7.5 10C6.17392 10 4.90215 9.47322 3.96447 8.53553C3.02678 7.59785 2.5 6.32608 2.5 5ZM4.16667 13.3333C3.50363 13.3333 2.86774 13.5967 2.3989 14.0656C1.93006 14.5344 1.66667 15.1703 1.66667 15.8333C1.66667 16.0543 1.57887 16.2663 1.42259 16.4226C1.26631 16.5789 1.05435 16.6667 0.833333 16.6667C0.61232 16.6667 0.400358 16.5789 0.244078 16.4226C0.0877973 16.2663 0 16.0543 0 15.8333C0 14.7283 0.438987 13.6685 1.22039 12.8871C2.00179 12.1057 3.0616 11.6667 4.16667 11.6667H10.8333C11.9384 11.6667 12.9982 12.1057 13.7796 12.8871C14.561 13.6685 15 14.7283 15 15.8333C15 16.0543 14.9122 16.2663 14.7559 16.4226C14.5996 16.5789 14.3877 16.6667 14.1667 16.6667C13.9457 16.6667 13.7337 16.5789 13.5774 16.4226C13.4211 16.2663 13.3333 16.0543 13.3333 15.8333C13.3333 15.1703 13.0699 14.5344 12.6011 14.0656C12.1323 13.5967 11.4964 13.3333 10.8333 13.3333H4.16667Z" fill="white"/>
</svg>
