<svg width="35" height="25" viewBox="0 0 35 25" fill="none" xmlns="http://www.w3.org/2000/svg">
<path d="M33.4349 20.7099C33.2437 21.4359 32.8689 22.0979 32.3479 22.6298C31.8269 23.1617 31.1781 23.5447 30.4663 23.7405C27.8464 24.459 17.344 24.459 17.344 24.459C17.344 24.459 6.84166 24.459 4.2217 23.7443C3.50962 23.5491 2.86046 23.1663 2.33939 22.6344C1.81833 22.1024 1.44371 21.44 1.25315 20.7138C0.552246 18.0386 0.552246 12.459 0.552246 12.459C0.552246 12.459 0.552246 6.87937 1.25315 4.20803C1.63921 2.73287 2.77865 1.57108 4.2217 1.17745C6.84166 0.458984 17.344 0.458984 17.344 0.458984C17.344 0.458984 27.8464 0.458984 30.4663 1.17745C31.9131 1.57108 33.0488 2.73287 33.4349 4.20803C34.1358 6.87937 34.1358 12.459 34.1358 12.459C34.1358 12.459 34.1358 18.0386 33.4349 20.7099ZM14.0082 7.33797L14.0082 17.58L22.7039 12.4972L14.0082 7.33797Z" fill="white"/>
</svg>
