<svg width="20" height="20" viewBox="0 0 20 20" fill="none" xmlns="http://www.w3.org/2000/svg"><path d="M14.097 4.836c.186 0 .503.03.952.09.448.06.939.232 1.472.516.541.275 1.032.735 1.471 1.38-.025.025-.148.12-.367.283a4.38 4.38 0 00-.736.696c-.271.301-.508.688-.711 1.161-.203.464-.305 1.019-.305 1.663 0 .74.127 1.367.381 1.883.262.516.563.933.901 1.25.347.31.651.538.914.684.27.146.414.224.431.232-.009.035-.118.34-.33.916-.203.576-.541 1.216-1.015 1.921-.414.61-.863 1.174-1.345 1.69-.474.515-1.045.773-1.713.773-.448 0-.816-.064-1.104-.193a21.4 21.4 0 00-.888-.4c-.304-.137-.715-.206-1.23-.206-.5 0-.918.069-1.257.206-.33.138-.647.275-.951.413-.297.137-.648.206-1.054.206-.617 0-1.158-.25-1.624-.748a16.907 16.907 0 01-1.433-1.792c-.567-.826-1.054-1.831-1.46-3.018a11.373 11.373 0 01-.596-3.61c0-1.298.241-2.386.723-3.263.482-.885 1.1-1.551 1.853-1.998.761-.456 1.548-.684 2.36-.684.431 0 .837.073 1.218.22.38.137.736.279 1.066.425.338.146.643.22.913.22.263 0 .567-.078.914-.233a13.53 13.53 0 011.167-.451 4.066 4.066 0 011.383-.232zM13.4 3.198c-.33.404-.744.744-1.243 1.019-.5.266-.973.4-1.421.4-.093 0-.182-.01-.267-.026a.87.87 0 01-.025-.142 1.79 1.79 0 01-.013-.22c0-.515.11-1.014.33-1.495.22-.49.47-.894.749-1.212.355-.43.803-.787 1.345-1.07C13.395.167 13.91.016 14.402 0c.025.112.038.245.038.4 0 .516-.098 1.018-.292 1.508a5.073 5.073 0 01-.749 1.29z" fill="#fff"/></svg>