<svg width="36" height="36" viewBox="0 0 36 36" fill="none" xmlns="http://www.w3.org/2000/svg"><path d="M18.282.01C13.643-.145 9.118 1.426 5.625 4.405c3.603 7.47 8.207 15.89 9.425 17.812 2.953 4.727 7.064 4.087 19.574 2.437a17.45 17.45 0 001.299-8.43 17.567 17.567 0 00-2.858-8.057A18.14 18.14 0 0026.7 2.318 18.685 18.685 0 0018.281.01z" fill="#F7602B"/><path d="M27.167 31.295c-6.947.171-9.68-.48-11.672-2.922C13.85 26.362 8.421 16.178 4.025 6.75A17.851 17.851 0 00.043 19.264a17.896 17.896 0 005.67 11.858A18.23 18.23 0 0018.008 36a18.235 18.235 0 0012.366-4.704h-3.208z" fill="#F7602B"/></svg>