<svg width="160" height="105" viewBox="0 0 160 105" fill="none" xmlns="http://www.w3.org/2000/svg"><path d="M70.13 29.09l-6.596 21.319H55.36l6.597-21.32h8.173zM88.629 34.925c-1.633-.64-3.666-1.068-5.987-1.068-1.275 0-3.511.029-3.94 1.405-.861 2.78 11.147.154 8.602 8.37-1.767 5.71-7.851 7.149-12.583 7.149-3.14 0-5.636-.309-8.468-1.011l1.71-5.527c1.915.913 4.445 1.405 6.885 1.405 1.92 0 3.778-.4 4.114-1.468.883-2.872-11.103-.274-8.545-8.553 1.816-5.864 8.237-6.903 13.08-6.903a33 33 0 016.814.73l-1.69 5.464.008.007zM93.276 29.09h13.389c3.694 0 6.947 1.193 5.692 5.252-.904 2.935-2.944 4.487-6 5.225l-.021.063c2.839.4 3.946 2.717 3.287 4.86-1.661 5.378-6.161 5.926-10.585 5.926H86.687l6.59-21.32v-.007zm2.447 16.923h2.13c1.494 0 3.281-.548 3.793-2.198.568-1.833-.855-2.17-2.376-2.17h-2.194l-1.346 4.368h-.007zm2.713-8.764h2.039c1.437 0 3.12-.428 3.624-2.043.491-1.587-.7-2.079-2.166-2.079h-2.229L98.43 37.25h.007zM130.211 29.09h8.174l-6.59 21.319h-8.173l2.369-7.668h-5.46l-2.37 7.668h-8.173l6.596-21.32h8.174l-2.279 7.36h5.461l2.278-7.36h-.007zM141.764 29.09h18.232l-1.584 5.133h-10.066l-1.066 3.447h9.758l-1.584 5.134h-9.758l-2.348 7.605h-8.174l6.59-21.32zM29.95.017a28.813 28.813 0 00-20 7.12c5.692 12.135 12.968 25.807 14.868 28.932 4.669 7.676 11.167 6.636 30.935 3.94a29.08 29.08 0 002.145-10.014C58.438 13.991 45.925.565 29.949.017z" fill="#FAFAFA"/><path d="M73.572 22.987a5.91 5.91 0 01-7.368 3.953 5.915 5.915 0 01-3.94-7.38 5.896 5.896 0 017.361-3.946c3.126.947 4.886 4.248 3.947 7.38v-.007z" fill="#F7602B"/><path d="M43.373 50.416c-11.082.274-15.45-.773-18.639-4.712-2.629-3.245-11.265-19.684-18.31-34.9a28.844 28.844 0 00-6.407 17.21C-.53 44.027 11.983 57.446 27.96 57.994a28.833 28.833 0 0020.517-7.577h-5.103zM3.858 69.895h1.984v9.038H3.858v-9.038zM7.588 69.895h1.97l3.764 6.06h.028v-6.06h1.858v9.038h-1.984l-3.75-6.046h-.029v6.046H7.588v-9.038zM18.944 71.567h-2.706v-1.671h7.388v1.67H20.92v7.367h-1.983v-7.366h.007zM24.664 69.895h6.743v1.672h-4.76v1.938h4.375v1.545h-4.375v2.212h4.865v1.671h-6.848v-9.038zM32.851 69.895h4.865c1.62 0 2.643 1.124 2.643 2.493 0 1.06-.414 1.861-1.43 2.262v.028c.974.267 1.247 1.186 1.31 2.113.036.57.015 1.644.379 2.142h-1.984c-.224-.569-.217-1.44-.315-2.163-.14-.948-.505-1.369-1.5-1.369h-1.984v3.532H32.85v-9.038zm1.984 4.088h2.173c.897 0 1.367-.38 1.367-1.293 0-.912-.47-1.25-1.367-1.25h-2.173v2.543zM41.978 69.895h1.97l3.764 6.06h.028v-6.06h1.858v9.038h-1.984l-3.75-6.046h-.028v6.046h-1.858v-9.038zM53.804 69.895h2.033l3.371 9.038h-2.06l-.68-2.015h-3.372l-.708 2.015h-2.012l3.42-9.038h.008zm-.197 5.541h2.335l-1.136-3.314h-.028L53.6 75.436h.008zM61.991 71.567h-2.705v-1.671h7.388v1.67h-2.706v7.367h-1.984v-7.366h.007zM67.711 69.895h1.984v9.038h-1.984v-9.038zM75.478 69.685c2.776 0 4.43 2.085 4.43 4.768 0 2.682-1.654 4.698-4.43 4.698s-4.437-2.086-4.437-4.698c0-2.612 1.654-4.768 4.437-4.768zm0 7.794c1.78 0 2.454-1.516 2.454-3.026 0-1.58-.666-3.104-2.454-3.104-1.787 0-2.453 1.517-2.453 3.104 0 1.587.673 3.026 2.453 3.026zM81.269 69.895h1.97l3.764 6.06h.028v-6.06h1.857v9.038h-1.984l-3.75-6.046h-.028v6.046H81.27v-9.038zM93.094 69.895h2.033l3.371 9.038h-2.06l-.68-2.015h-3.372l-.708 2.015h-2.012l3.42-9.038h.008zm-.19 5.541h2.335l-1.136-3.314h-.028l-1.177 3.314h.007zM99.284 69.895h1.983v7.367h4.396v1.671h-6.38v-9.038z" fill="#FAFAFA"/><path d="M5.211 88.589c0 1.2.933 1.671 1.998 1.671.694 0 1.753-.204 1.753-1.124 0-.99-1.367-1.123-2.678-1.495-1.339-.33-2.692-.9-2.692-2.57 0-1.861 1.746-2.732 3.372-2.732 1.886 0 3.61.822 3.61 2.914h-1.92c-.064-1.074-.82-1.37-1.781-1.37-.631 0-1.367.268-1.367 1.026 0 .695.427.8 2.692 1.37.673.154 2.677.596 2.677 2.633 0 1.657-1.29 2.9-3.75 2.9-1.998 0-3.876-.99-3.841-3.216h1.92l.007-.007zM14.051 84.22h-2.706v-1.67h7.389v1.67h-2.706v7.367h-1.984v-7.366h.007zM19.778 82.55h4.865c1.619 0 2.642 1.123 2.642 2.492 0 1.06-.413 1.861-1.43 2.262v.028c.975.267 1.248 1.186 1.311 2.113.035.57.014 1.644.379 2.135H25.56c-.231-.569-.217-1.44-.316-2.163-.14-.948-.504-1.37-1.5-1.37h-1.983v3.533h-1.984v-9.037.006zm1.984 4.087h2.173c.897 0 1.367-.38 1.367-1.293 0-.912-.47-1.25-1.367-1.25h-2.173v2.543zM28.898 82.55h6.743v1.67h-4.76v1.939h4.375v1.545h-4.374v2.212h4.865v1.671h-6.85V82.55zM37.085 82.55h6.744v1.67h-4.76v1.939h4.374v1.545H39.07v2.212h4.865v1.671h-6.849V82.55zM47.27 84.22h-2.705v-1.67h7.388v1.67h-2.706v7.367h-1.983v-7.366h.007zM61.494 90.689c-.722.709-1.514 1.074-2.538 1.074-1.633 0-2.916-.997-2.916-2.71 0-1.265.96-2.129 2.019-2.62-.49-.597-.862-1.124-.862-1.924 0-1.25 1.135-2.065 2.348-2.065 1.367 0 2.474.745 2.474 2.163 0 1.06-.694 1.763-1.605 2.254l1.164 1.433c.19-.344.28-.71.33-1.075h1.556c-.092.808-.365 1.58-.87 2.227l1.83 2.134h-2.201l-.736-.899.007.008zm-2.489-3.09c-.645.266-1.262.758-1.262 1.495 0 .66.617 1.187 1.29 1.187s1.1-.33 1.514-.8l-1.542-1.89v.008zm.631-3.947a.786.786 0 00-.806.794c0 .569.364.934.708 1.355.505-.316.925-.632.925-1.292 0-.47-.378-.857-.82-.857h-.007zM68.672 82.55h4.248c1.717 0 2.88.554 2.88 2.24 0 .898-.427 1.495-1.226 1.889 1.115.316 1.654 1.165 1.654 2.289 0 1.833-1.556 2.62-3.182 2.62h-4.374V82.55zm1.984 3.658h2.011c.709 0 1.213-.316 1.213-1.074 0-.85-.659-1.04-1.367-1.04h-1.857v2.114zm0 3.834h2.124c.77 0 1.465-.252 1.465-1.186 0-.934-.568-1.293-1.43-1.293h-2.16v2.48zM80.027 82.55h2.033l3.372 9.037h-2.06l-.68-2.015h-3.373l-.708 2.015H76.6l3.42-9.037h.007zm-.189 5.547h2.334l-1.135-3.314h-.028l-1.178 3.314h.007zM86.217 82.55h1.984v7.366h4.395v1.671h-6.379V82.55zM93.71 82.55h1.985v7.366h4.395v1.671h-6.38V82.55zM104.716 82.55h1.984v3.469h3.652v-3.47h1.984v9.038h-1.984V87.69H106.7v3.897h-1.984V82.55zM118.119 82.339c2.776 0 4.437 2.085 4.437 4.768s-1.654 4.698-4.437 4.698c-2.783 0-4.43-2.086-4.43-4.698 0-2.612 1.654-4.768 4.43-4.768zm0 7.795c1.781 0 2.454-1.517 2.454-3.027 0-1.58-.673-3.104-2.454-3.104-1.78 0-2.453 1.517-2.453 3.104 0 1.587.673 3.027 2.453 3.027zM129.917 85.59c-.14-.899-.996-1.58-1.97-1.58-1.78 0-2.453 1.517-2.453 3.104 0 1.587.673 3.027 2.453 3.027 1.213 0 1.893-.822 2.047-2.023h1.921c-.204 2.268-1.746 3.694-3.968 3.694-2.776 0-4.437-2.086-4.437-4.698 0-2.612 1.654-4.768 4.437-4.768 1.97 0 3.652 1.166 3.89 3.251h-1.92v-.007zM133.268 82.55h1.983v3.742l3.526-3.743h2.475l-3.526 3.568 3.862 5.47H139.1l-2.713-4.066-1.136 1.152v2.907h-1.983v-9.037.006zM142.387 82.55h6.744v1.67h-4.76v1.939h4.367v1.545h-4.367v2.212h4.865v1.671h-6.849V82.55zM152.916 88.069l-3.323-5.52h2.236l2.11 3.568 2.096-3.567h2.208l-3.35 5.568v3.47h-1.984v-3.519h.007z" fill="#F7602B"/><path d="M3.858 95.204h6.344v1.67h-4.36v2.087h3.779v1.544H5.841v3.736H3.858v-9.037zM11.352 95.204h6.744v1.67h-4.76v1.939h4.374v1.545h-4.374v2.212H18.2v1.671h-6.849v-9.037zM19.54 95.204h3.89c2.334 0 4.094 1.481 4.094 4.466 0 2.619-1.34 4.571-4.094 4.571h-3.89v-9.037zm1.983 7.366h1.767c1.15 0 2.25-.709 2.25-2.71 0-1.826-.645-2.985-2.6-2.985h-1.417v5.695zM28.898 95.204h6.743v1.67h-4.76v1.939h4.368v1.545h-4.367v2.212h4.865v1.671h-6.85v-9.037zM37.085 95.204h4.865c1.62 0 2.643 1.123 2.643 2.493 0 1.06-.414 1.86-1.43 2.268v.028c.974.267 1.248 1.187 1.31 2.113.036.569.015 1.644.38 2.135h-1.984c-.225-.569-.218-1.439-.316-2.163-.14-.948-.505-1.369-1.5-1.369h-1.984v3.532h-1.984v-9.037zm1.984 4.094h2.173c.898 0 1.367-.38 1.367-1.293 0-.912-.47-1.25-1.367-1.25H39.07v2.543zM48.672 95.204h2.033l3.372 9.037h-2.06l-.68-2.015h-3.373l-.707 2.015h-2.012l3.42-9.037h.007zm-.189 5.547h2.335l-1.136-3.314h-.028l-1.178 3.314h.007zM56.86 96.875h-2.706v-1.671h7.389v1.67h-2.706v7.367h-1.984v-7.366h.007zM62.58 95.204h1.984v9.037H62.58v-9.037zM70.347 94.993c2.776 0 4.437 2.086 4.437 4.768 0 2.683-1.654 4.698-4.437 4.698-2.783 0-4.437-2.086-4.437-4.698 0-2.612 1.654-4.768 4.437-4.768zm0 7.795c1.78 0 2.453-1.517 2.453-3.027 0-1.58-.673-3.104-2.453-3.104-1.78 0-2.453 1.517-2.453 3.104 0 1.587.672 3.027 2.453 3.027zM76.137 95.204h1.97l3.764 6.06h.028v-6.06h1.858v9.037h-1.984l-3.75-6.046h-.028v6.046h-1.858v-9.037z" fill="#FAFAFA"/></svg>