<svg width="25" height="25" viewBox="0 0 25 25" fill="none" xmlns="http://www.w3.org/2000/svg"><path d="M13.786.46c.876-.003 1.751.006 2.627.027l.232.008c.27.01.534.022.855.036 1.276.06 2.148.262 2.912.558.792.305 1.459.718 2.126 1.385a5.89 5.89 0 011.384 2.125c.296.764.498 1.637.558 2.913.014.32.026.586.036.855l.007.233c.021.875.03 1.75.027 2.625l.002.895v1.572c.003.876-.006 1.752-.028 2.627l-.007.233c-.01.268-.022.534-.036.854-.06 1.277-.264 2.148-.56 2.912a5.86 5.86 0 01-1.383 2.127 5.897 5.897 0 01-2.126 1.383c-.764.296-1.636.498-2.912.558-.32.014-.586.026-.855.036l-.232.007c-.876.022-1.752.03-2.627.028l-.895.001H11.32a94.262 94.262 0 01-2.627-.028l-.232-.007c-.285-.01-.57-.022-.855-.036-1.277-.06-2.148-.264-2.913-.559-.801-.3-1.526-.773-2.125-1.383a5.884 5.884 0 01-1.385-2.127c-.296-.764-.498-1.635-.558-2.912l-.036-.854-.006-.233a94.853 94.853 0 01-.03-2.627v-2.467C.55 10.35.558 9.475.579 8.6l.009-.233c.01-.269.021-.535.036-.855.06-1.277.261-2.147.558-2.913.301-.8.775-1.526 1.387-2.124A5.876 5.876 0 014.693 1.09C5.458.793 6.328.591 7.606.531l.855-.036.232-.006c.875-.022 1.75-.032 2.626-.03l2.467.001zm-1.234 6a6 6 0 100 11.998 6 6 0 100-11.998zm0 2.4a3.6 3.6 0 11.002 7.198 3.6 3.6 0 010-7.2l-.002.002zm6.3-4.2a1.5 1.5 0 000 2.998 1.5 1.5 0 000-3v.002z" fill="#fff"/></svg>