<svg width="16" height="16" viewBox="0 0 16 16" fill="none" xmlns="http://www.w3.org/2000/svg"><path d="M8 1.333a4 4 0 013.997 3.85l.003.15h.667a1.333 1.333 0 011.33 1.234l.003.1v6.666a1.333 1.333 0 01-1.233 1.33l-.1.004H3.333a1.333 1.333 0 01-1.33-1.234l-.003-.1V6.667a1.333 1.333 0 011.233-1.33l.1-.004H4a4 4 0 014-4zm4.667 5.334H3.333v6.666h9.334V6.667zM8 8a1.333 1.333 0 01.756 2.431l-.09.057v.845a.667.667 0 01-1.328.078l-.005-.078v-.845A1.333 1.333 0 018 8zm0-5.333a2.667 2.667 0 00-2.667 2.666h5.334A2.667 2.667 0 008 2.667z" fill="#fff"/></svg>