<svg width="35" height="24" viewBox="0 0 35 24" fill="none" xmlns="http://www.w3.org/2000/svg"><rect x=".5" y=".5" width="34" height="23" rx="3.5" fill="#fff" stroke="#D9D9D9"/><path d="M22.176 5C25.944 5 29 8.09 29 11.903c0 3.813-3.056 6.903-6.824 6.903a6.748 6.748 0 01-4.426-1.652 6.748 6.748 0 01-4.426 1.652c-3.768 0-6.824-3.09-6.824-6.903C6.5 8.091 9.556 5 13.324 5a6.75 6.75 0 014.426 1.65A6.75 6.75 0 0122.176 5z" fill="#ED0006"/><path d="M22.176 5C25.944 5 29 8.09 29 11.903c0 3.813-3.056 6.903-6.824 6.903a6.748 6.748 0 01-4.426-1.652 6.918 6.918 0 002.398-5.25A6.92 6.92 0 0017.75 6.65 6.75 6.75 0 0122.176 5z" fill="#F9A000"/><path d="M17.75 6.651a6.92 6.92 0 012.398 5.252 6.918 6.918 0 01-2.398 5.25 6.918 6.918 0 01-2.398-5.25 6.92 6.92 0 012.398-5.252z" fill="#FF5E00"/></svg>