<svg width="35" height="25" viewBox="0 0 35 25" fill="none" xmlns="http://www.w3.org/2000/svg"><path d="M33.435 20.71a4.312 4.312 0 01-1.087 1.92 4.19 4.19 0 01-1.882 1.11c-2.62.719-13.122.719-13.122.719s-10.502 0-13.122-.715a4.185 4.185 0 01-1.883-1.11 4.306 4.306 0 01-1.086-1.92c-.7-2.675-.7-8.255-.7-8.255s0-5.58.7-8.251c.386-1.475 1.526-2.637 2.969-3.03C6.842.458 17.344.458 17.344.458s10.502 0 13.122.718c1.447.394 2.583 1.556 2.969 3.031.7 2.671.7 8.251.7 8.251s0 5.58-.7 8.25zM14.008 7.338V17.58l8.696-5.083-8.696-5.159z" fill="#fff"/></svg>